<svg width="70" height="30" viewBox="0 0 70 30" fill="none" xmlns="http://www.w3.org/2000/svg">
<path d="M43.1399 2.3919V3.86267L42.6733 3.31371C42.3267 2.90714 41.9052 2.60174 41.4087 2.39752C40.9084 2.1933 40.3239 2.08838 39.6569 2.08838C38.9899 2.08838 38.3678 2.21766 37.7964 2.47996C37.2193 2.74226 36.6872 3.13947 36.2019 3.66595C35.7204 4.18868 35.3607 4.76949 35.1209 5.41026C34.8792 6.05103 34.7593 6.75925 34.7593 7.52742C34.7593 8.2956 34.8792 9.01506 35.1209 9.65958C35.3607 10.3041 35.7223 10.8868 36.2019 11.4095C36.6816 11.9285 37.2099 12.3201 37.7833 12.5786C38.3547 12.8353 38.9824 12.9665 39.6569 12.9665C40.3313 12.9665 40.9084 12.8634 41.4087 12.6573C41.9052 12.455 42.3267 12.1477 42.6733 11.7411L43.1399 11.194V12.6629H45.8491V2.3919H43.1399ZM37.6633 8.70404C37.5341 8.35368 37.4685 7.96022 37.4685 7.52742C37.4685 7.09462 37.5341 6.6993 37.6633 6.35081C37.7964 5.99295 37.9968 5.68193 38.2592 5.41776C38.5215 5.15545 38.8269 4.95685 39.1716 4.8257C39.5126 4.69455 39.8911 4.6271 40.3032 4.6271C40.7154 4.6271 41.0939 4.69268 41.433 4.82383C41.7778 4.95311 42.0832 5.15358 42.3473 5.41776C42.6134 5.68381 42.8139 5.99482 42.9431 6.35081C43.0724 6.70117 43.138 7.09462 43.138 7.52742C43.138 7.96022 43.0724 8.35368 42.9431 8.70404C42.812 9.0619 42.6134 9.37292 42.3473 9.63709C42.085 9.8994 41.7796 10.098 41.433 10.231C41.092 10.3622 40.7136 10.4277 40.3014 10.4277C39.8892 10.4277 39.5088 10.3622 39.1697 10.231C38.825 10.098 38.5196 9.8994 38.2573 9.63709C37.9931 9.37292 37.7945 9.06002 37.6615 8.70404H37.6633ZM56.8115 2.47996C56.24 2.21766 55.618 2.08838 54.9491 2.08838C54.2803 2.08838 53.6976 2.19143 53.1973 2.39752C52.7027 2.59987 52.2793 2.90714 51.9326 3.31371L51.4661 3.8608V2.3919H48.7569V16.8017H51.4661V11.194L51.9326 11.7411C52.2793 12.1477 52.7027 12.455 53.1973 12.6573C53.6994 12.8634 54.2859 12.9665 54.951 12.9665C55.6161 12.9665 56.2532 12.8372 56.8246 12.5786C57.3998 12.3201 57.9282 11.9285 58.4059 11.4095C58.8856 10.8868 59.2472 10.3022 59.487 9.65958C59.7268 9.01506 59.8467 8.30309 59.8467 7.52742C59.8467 6.75176 59.7249 6.05103 59.487 5.41026C59.2472 4.76949 58.8856 4.18681 58.4059 3.66595C57.9207 3.13947 57.3886 2.74226 56.8115 2.47996ZM53.1805 10.2291C52.8376 10.098 52.5303 9.8994 52.2605 9.63709C51.9945 9.37104 51.794 9.05815 51.6629 8.70217C51.5336 8.35181 51.468 7.95835 51.468 7.52555C51.468 7.09275 51.5336 6.69742 51.6629 6.34893C51.7959 5.99108 51.9963 5.68006 52.2587 5.41588C52.5322 5.15171 52.8395 4.95311 53.1823 4.82195C53.5252 4.6908 53.8999 4.62523 54.3046 4.62523C55.1253 4.62523 55.8016 4.8894 56.3281 5.41588C56.8696 5.94236 57.1412 6.64683 57.1412 7.52555C57.1412 7.96022 57.0738 8.35555 56.9408 8.70404C56.8059 9.05815 56.5998 9.37104 56.3281 9.63522C56.0658 9.89752 55.7623 10.0961 55.4213 10.2291C55.084 10.3603 54.7112 10.4259 54.3065 10.4259C53.9018 10.4259 53.5271 10.3603 53.1861 10.2291H53.1805ZM69.9997 2.39003H60.8097V4.96997H64.0717V12.6611H66.7809V4.97184H69.9997V2.3919V2.39003Z" fill="#6E6E6E"/>
<path d="M43.8729 17.333L38.8647 23.1842V17.333H36.2417V27.6041H38.2315L43.2415 21.7528V27.6041H45.8645V17.333H43.8747H43.8729ZM55.6821 17.333V21.2207H51.4796V17.333H48.7704V27.6041H51.4796V23.7163H55.6821V27.6041H58.3913V17.333H55.6821Z" fill="#6E6E6E"/>
<path d="M60.8101 27.6027H70V25.0227H66.7812V13.1929H64.072V25.0227H60.8101V27.6027Z" fill="#6E6E6E"/>
<path fill-rule="evenodd" clip-rule="evenodd" d="M2.28937 0H15.2434V2.69985L5.23466 8.60167V27.2158L10.1791 27.3002V23.2438L15.2415 20.3248V30H2.28937C1.16334 30 0.243408 29.0801 0.243408 27.9522V2.04597C0.243408 0.919935 1.16334 0 2.28937 0ZM15.2434 14.3218L10.181 17.2446V11.4064L15.2434 8.49113V14.3218Z" fill="#6E6E6E"/>
<path d="M28.1951 0C29.3211 0 30.2429 0.919898 30.2429 2.0459V27.9521C30.2429 29.0782 29.323 30 28.1951 30H15.2429V20.3232L20.3054 23.2422V27.2988L25.2517 27.2148V8.60059L15.2429 2.69824V0H28.1951ZM15.2429 8.49023L20.3054 11.4053V17.2432L15.2429 14.3203V8.49023Z" fill="#6E6E6E"/>
</svg>
