<svg width="56" height="49" viewBox="0 0 56 49" fill="none" xmlns="http://www.w3.org/2000/svg">
<path d="M10.389 6.5601C11.946 4.418 11.834 1.4578 17.1171 0C15.627 4.00895 12.0417 5.76742 11.2469 6.24121C10.4522 6.71499 9.39559 8.61014 8.94403 9.70349C10.2987 8.10902 11.9243 6.01343 15.5367 6.24121C11.9243 10.0679 9.48589 9.20237 8.13124 11.0246C7.50268 11.8701 6.50565 14.2895 6.37018 16.0358C6.82173 15.0791 7.63453 11.5257 11.7888 11.1157C11.4276 12.7558 8.98919 14.9425 6.86689 16.2636C4.90661 18.2225 5.46708 22.5504 5.6477 23.5526C5.78526 22.2406 5.76011 17.8125 9.53105 16.6736C8.58279 21.047 6.77658 21.9126 5.96378 24.2815C5.82832 26.7415 6.77658 28.6549 7.54422 30.0216C7.18298 27.6527 6.50565 25.1926 9.16981 22.1403C9.71167 27.516 8.53649 27.6596 8.17639 29.8394C7.76999 32.2994 10.2535 34.3494 11.5179 35.8983C11.0663 34.6228 8.40217 32.3905 10.7051 27.6071C12.8274 32.2083 11.6297 33.1016 11.9243 35.3517C12.2361 37.734 15.6399 39.318 17.2342 40.0599L17.2978 40.0895C13.7305 37.6295 13.4596 34.9872 13.6402 32.8005C17.1171 35.5339 16.9365 38.495 18.0654 39.9528C18.3856 40.3664 20.0522 41.5929 22.9422 42.3673C26.5546 43.5518 29.9412 45.1463 33.1924 47.6063L31.928 48.0619C28.4059 45.0551 23.2255 43.0962 21.3617 43.0962C19.0588 43.0962 16.6204 45.3285 11.7437 43.0962C15.0851 41.274 18.3363 41.8662 20.3232 42.3673C18.5621 41.3651 17.072 40.4995 15.3109 40.2717C10.9309 40.3629 9.48589 40.2717 6.37018 37.5839C10.2084 36.9917 13.0983 38.6165 14.453 39.4062C11.5179 37.3106 11.563 36.3995 9.80198 35.6706C7.74432 34.8189 5.19615 35.3517 2.12559 30.5227C6.23472 30.7505 7.95061 33.4383 9.48589 34.805C7.95061 32.8005 7.58937 31.7527 6.77658 30.5227C5.51223 28.6093 1.71919 28.8371 0.5 22.5504C4.93786 24.6459 5.01552 27.8804 6.37018 29.2927C5.6477 27.926 5.05165 24.7826 4.47366 23.3248C3.75118 21.5026 0.59031 20.7281 1.26764 14.4869C5.43927 18.997 3.75118 21.3659 4.74459 22.4137C4.56397 19.8625 4.92521 18.9059 4.97037 17.2203C5.01552 15.5347 2.03529 13.348 4.38335 7.47123C6.05409 9.93127 5.55739 13.9099 5.46708 16.0358C6.23472 12.7102 6.05494 13.9899 7.09267 11.6168C7.76999 10.0679 5.51223 5.69453 9.39558 2.00448C10.0819 3.60806 8.94403 7.83568 7.95061 10.0679C9.26012 7.79012 9.89229 7.24345 10.389 6.5601Z" fill="white"/>
<path d="M45.611 6.5601C44.054 4.418 44.166 1.4578 38.8829 0C40.373 4.00895 43.9583 5.76742 44.7531 6.24121C45.5478 6.71499 46.6044 8.61014 47.056 9.70349C45.7013 8.10902 44.0757 6.01343 40.4633 6.24121C44.0757 10.0679 46.5141 9.20237 47.8688 11.0246C48.4973 11.8701 49.4944 14.2895 49.6298 16.0358C49.1783 15.0791 48.3655 11.5257 44.2112 11.1157C44.5724 12.7558 47.0108 14.9425 49.1331 16.2636C51.0934 18.2225 50.5329 22.5504 50.3523 23.5526C50.2148 22.2406 50.2399 17.8125 46.469 16.6736C47.4172 21.047 49.2234 21.9126 50.0362 24.2815C50.1717 26.7415 49.2234 28.6549 48.4558 30.0216C48.817 27.6527 49.4944 25.1926 46.8302 22.1403C46.2883 27.516 47.4636 27.6596 47.8236 29.8394C48.23 32.2994 45.7465 34.3494 44.4821 35.8983C44.9337 34.6228 47.5978 32.3905 45.2949 27.6071C43.1726 32.2083 44.3703 33.1016 44.0757 35.3517C43.7639 37.734 40.3601 39.318 38.7658 40.0599L38.7023 40.0895C42.2695 37.6295 42.5405 34.9872 42.3598 32.8005C38.8829 35.5339 39.0635 38.495 37.9346 39.9528C37.6144 40.3664 35.9478 41.5929 33.0579 42.3673C29.4454 43.5518 26.0588 45.1463 22.8076 47.6063L24.072 48.0619C27.5941 45.0551 32.7746 43.0962 34.6383 43.0962C36.9412 43.0962 39.3796 45.3285 44.2564 43.0962C40.9149 41.274 37.6637 41.8662 35.6769 42.3673C37.4379 41.3651 38.928 40.4995 40.6891 40.2717C45.0692 40.3629 46.5141 40.2717 49.6298 37.5839C45.7916 36.9917 42.9017 38.6165 41.547 39.4062C44.4821 37.3106 44.437 36.3995 46.198 35.6706C48.2557 34.8189 50.8039 35.3517 53.8744 30.5227C49.7653 30.7505 48.0494 33.4383 46.5141 34.805C48.0494 32.8005 48.4106 31.7527 49.2234 30.5227C50.4878 28.6093 54.2808 28.8371 55.5 22.5504C51.0622 24.6459 50.9845 27.8804 49.6298 29.2927C50.3523 27.926 50.9484 24.7826 51.5264 23.3248C52.2488 21.5026 55.4097 20.7281 54.7324 14.4869C50.5608 18.997 52.2488 21.3659 51.2554 22.4137C51.436 19.8625 51.0748 18.9059 51.0296 17.2203C50.9845 15.5347 53.9647 13.348 51.6167 7.47123C49.9459 9.93127 50.4426 13.9099 50.5329 16.0358C49.7653 12.7102 49.9451 13.9899 48.9073 11.6168C48.23 10.0679 50.4878 5.69453 46.6044 2.00448C45.9181 3.60806 47.056 7.83568 48.0494 10.0679C46.7399 7.79012 46.1077 7.24345 45.611 6.5601Z" fill="white"/>
<path d="M42.2388 8.97479C38.807 7.51699 32.3046 5.10251 27.9697 1.45801V1.48321V2.96136C27.9748 2.96507 27.9798 2.96878 27.9848 2.97249C31.7338 5.74723 37.773 8.33883 41.2002 9.70369C41.4712 13.2115 42.4475 22.8239 40.2971 27.4706C37.8623 32.732 32.9917 35.7559 27.9848 38.9412C27.9798 38.9444 27.9748 38.9476 27.9697 38.9508V40.2501V40.2719C30.5887 38.3586 38.5812 34.213 41.3357 27.9262C43.5513 22.8695 42.5097 10.5693 42.2388 8.97479Z" fill="white"/>
<path d="M27.9701 1.48315C23.6353 5.11359 17.1549 7.5203 13.7311 8.97474C13.4601 10.5692 12.4187 22.8694 14.6342 27.9261C17.3782 34.189 25.3205 38.327 27.9701 40.25V38.9508C27.9751 38.9476 27.9801 38.9444 27.9851 38.9412C22.9782 35.7558 18.1075 32.732 15.6728 27.4706C13.5224 22.8238 14.4987 13.2115 14.7697 9.70364C18.1968 8.33877 24.2361 5.74718 27.9851 2.97243C27.9801 2.96873 27.9751 2.96502 27.9701 2.96131V1.48315Z" fill="white"/>
<path d="M15.7629 10.4325C18.7432 9.47584 24.2972 6.74246 28 4.37354C31.7027 6.74246 37.2592 9.47584 40.2394 10.4325C40.691 14.8059 41.4713 23.5026 39.1105 27.5617C35.9045 33.074 32.064 35.0329 28 37.7207C23.936 35.0329 20.0978 33.074 16.8918 27.5617C14.531 23.5026 15.3114 14.8059 15.7629 10.4325Z" fill="#AA0101"/>
<path d="M28.0005 10.4327C28.5242 10.4327 28.9488 10.0043 28.9488 9.47597C28.9488 8.94761 28.5242 8.51929 28.0005 8.51929C27.4768 8.51929 27.0522 8.94761 27.0522 9.47597C27.0522 10.0043 27.4768 10.4327 28.0005 10.4327Z" fill="white"/>
<path d="M28.0005 32.482C28.5242 32.482 28.9488 32.0536 28.9488 31.5253C28.9488 30.9969 28.5242 30.5686 28.0005 30.5686C27.4768 30.5686 27.0522 30.9969 27.0522 31.5253C27.0522 32.0536 27.4768 32.482 28.0005 32.482Z" fill="white"/>
<path d="M22.1293 13.4395H16.6655V13.8039C17.1622 13.8039 18.1557 14.3506 18.4266 15.0339C18.6433 15.5806 21.0155 23.2188 22.2196 26.9697H23.3937L27.2319 14.4872V25.1474C27.2319 26.0221 26.4191 26.3622 26.0127 26.4685V26.9697H29.4896V26.4685C29.0681 26.3015 28.2253 25.8763 28.2253 25.1474V16.5828L31.7022 26.833L35.3598 15.3528C35.3447 18.6632 35.2605 25.4025 35.0437 25.8763C34.827 26.3501 34.4718 26.4382 34.3212 26.4685V26.9697H38.8819V26.4685C38.5207 26.3926 37.5609 26.314 37.4821 25.8763C37.3918 25.3752 37.4821 14.6239 37.7982 14.1684C38.0511 13.8039 38.6261 13.7736 38.8819 13.8039V13.4395H35.0437L32.3344 21.7762L29.7154 13.4395H24.7032V13.8039C25.0945 13.8039 25.9043 13.9406 26.0127 14.4872C26.121 15.0339 24.4322 20.6677 23.5743 23.4163C22.7163 20.4248 21.1035 15.0004 21.0456 14.6695C20.9101 13.895 21.5423 13.895 22.1293 13.8039V13.4395Z" fill="white"/>
</svg>
