<svg width="55" height="49" viewBox="0 0 55 49" fill="none" xmlns="http://www.w3.org/2000/svg">
<path d="M9.889 6.62211C11.446 4.48001 11.334 1.51981 16.6171 0.0620117C15.127 4.07096 11.5417 5.82944 10.7469 6.30322C9.95222 6.77701 8.89559 8.67215 8.44403 9.7655C9.79869 8.17103 11.4243 6.07544 15.0367 6.30322C11.4243 10.1299 8.98589 9.26438 7.63124 11.0866C7.00268 11.9322 6.00565 14.3515 5.87018 16.0978C6.32173 15.1411 7.13453 11.5877 11.2888 11.1777C10.9276 12.8178 8.48919 15.0045 6.36689 16.3256C4.40661 18.2845 4.96708 22.6124 5.1477 23.6146C5.28526 22.3026 5.26011 17.8745 9.03105 16.7356C8.08279 21.109 6.27658 21.9746 5.46378 24.3435C5.32832 26.8035 6.27658 28.7169 7.04422 30.0836C6.68298 27.7147 6.00565 25.2546 8.66981 22.2024C9.21167 27.578 8.03649 27.7216 7.67639 29.9014C7.26999 32.3614 9.75353 34.4114 11.0179 35.9604C10.5663 34.6848 7.90217 32.4525 10.2051 27.6691C12.3274 32.2703 11.1297 33.1637 11.4243 35.4137C11.7361 37.796 15.1399 39.38 16.7342 40.1219L16.7978 40.1515C13.2305 37.6915 12.9596 35.0492 13.1402 32.8625C16.6171 35.5959 16.4365 38.5571 17.5654 40.0149C17.8856 40.4284 19.5522 41.6549 22.4422 42.4293C26.0546 43.6138 29.4412 45.2083 32.6924 47.6683L31.428 48.1239C27.9059 45.1172 22.7255 43.1582 20.8617 43.1582C18.5588 43.1582 16.1204 45.3905 11.2437 43.1582C14.5851 41.336 17.8363 41.9282 19.8232 42.4293C18.0621 41.4271 16.572 40.5615 14.8109 40.3338C10.4309 40.4249 8.98589 40.3338 5.87018 37.6459C9.70838 37.0537 12.5983 38.6785 13.953 39.4682C11.0179 37.3726 11.063 36.4615 9.30198 35.7326C7.24432 34.8809 4.69615 35.4137 1.62559 30.5847C5.73472 30.8125 7.45061 33.5003 8.98589 34.867C7.45061 32.8625 7.08937 31.8147 6.27658 30.5847C5.01223 28.6713 1.21919 28.8991 0 22.6124C4.43786 24.708 4.51552 27.9424 5.87018 29.3547C5.1477 27.988 4.55165 24.8446 3.97366 23.3868C3.25118 21.5646 0.0903104 20.7901 0.767642 14.5489C4.93927 19.059 3.25118 21.4279 4.24459 22.4757C4.06397 19.9245 4.42521 18.9679 4.47037 17.2823C4.51552 15.5967 1.53529 13.41 3.88335 7.53324C5.55409 9.99328 5.05739 13.9719 4.96708 16.0978C5.73472 12.7722 5.55494 14.0519 6.59267 11.6789C7.26999 10.1299 5.01223 5.75655 8.89558 2.06649C9.58194 3.67007 8.44403 7.89769 7.45061 10.1299C8.76012 7.85213 9.39229 7.30546 9.889 6.62211Z" fill="black"/>
<path d="M45.111 6.62211C43.554 4.48001 43.666 1.51981 38.3829 0.0620117C39.873 4.07096 43.4583 5.82944 44.2531 6.30322C45.0478 6.77701 46.1044 8.67215 46.556 9.7655C45.2013 8.17103 43.5757 6.07544 39.9633 6.30322C43.5757 10.1299 46.0141 9.26438 47.3688 11.0866C47.9973 11.9322 48.9944 14.3515 49.1298 16.0978C48.6783 15.1411 47.8655 11.5877 43.7112 11.1777C44.0724 12.8178 46.5108 15.0045 48.6331 16.3256C50.5934 18.2845 50.0329 22.6124 49.8523 23.6146C49.7148 22.3026 49.7399 17.8745 45.969 16.7356C46.9172 21.109 48.7234 21.9746 49.5362 24.3435C49.6717 26.8035 48.7234 28.7169 47.9558 30.0836C48.317 27.7147 48.9944 25.2546 46.3302 22.2024C45.7883 27.578 46.9636 27.7216 47.3236 29.9014C47.73 32.3614 45.2465 34.4114 43.9821 35.9604C44.4337 34.6848 47.0978 32.4525 44.7949 27.6691C42.6726 32.2703 43.8703 33.1637 43.5757 35.4137C43.2639 37.796 39.8601 39.38 38.2658 40.1219L38.2023 40.1515C41.7695 37.6915 42.0405 35.0492 41.8598 32.8625C38.3829 35.5959 38.5635 38.5571 37.4346 40.0149C37.1144 40.4284 35.4478 41.6549 32.5579 42.4293C28.9454 43.6138 25.5588 45.2083 22.3076 47.6683L23.572 48.1239C27.0941 45.1172 32.2746 43.1582 34.1383 43.1582C36.4412 43.1582 38.8796 45.3905 43.7564 43.1582C40.4149 41.336 37.1637 41.9282 35.1769 42.4293C36.9379 41.4271 38.428 40.5615 40.1891 40.3338C44.5692 40.4249 46.0141 40.3338 49.1298 37.6459C45.2916 37.0537 42.4017 38.6785 41.047 39.4682C43.9821 37.3726 43.937 36.4615 45.698 35.7326C47.7557 34.8809 50.3039 35.4137 53.3744 30.5847C49.2653 30.8125 47.5494 33.5003 46.0141 34.867C47.5494 32.8625 47.9106 31.8147 48.7234 30.5847C49.9878 28.6713 53.7808 28.8991 55 22.6124C50.5622 24.708 50.4845 27.9424 49.1298 29.3547C49.8523 27.988 50.4484 24.8446 51.0264 23.3868C51.7488 21.5646 54.9097 20.7901 54.2324 14.5489C50.0608 19.059 51.7488 21.4279 50.7554 22.4757C50.936 19.9245 50.5748 18.9679 50.5296 17.2823C50.4845 15.5967 53.4647 13.41 51.1167 7.53324C49.4459 9.99328 49.9426 13.9719 50.0329 16.0978C49.2653 12.7722 49.4451 14.0519 48.4073 11.6789C47.73 10.1299 49.9878 5.75655 46.1044 2.06649C45.4181 3.67007 46.556 7.89769 47.5494 10.1299C46.2399 7.85213 45.6077 7.30546 45.111 6.62211Z" fill="black"/>
<path d="M41.7388 9.0368C38.307 7.579 31.8046 5.16452 27.4697 1.52002V1.54522V3.02338C27.4748 3.02708 27.4798 3.03079 27.4848 3.0345C31.2338 5.80924 37.273 8.40084 40.7002 9.7657C40.9712 13.2735 41.9475 22.8859 39.7971 27.5326C37.3623 32.794 32.4917 35.8179 27.4848 39.0033C27.4798 39.0064 27.4748 39.0096 27.4697 39.0128V40.3121V40.334C30.0887 38.4206 38.0812 34.275 40.8357 27.9882C43.0513 22.9315 42.0097 10.6313 41.7388 9.0368Z" fill="white"/>
<path d="M27.4701 1.54541C23.1353 5.17584 16.6549 7.58255 13.2311 9.03699C12.9601 10.6315 11.9187 22.9317 14.1342 27.9884C16.8782 34.2513 24.8205 38.3893 27.4701 40.3123V39.013C27.4751 39.0098 27.4801 39.0066 27.4851 39.0034C22.4782 35.8181 17.6075 32.7942 15.1728 27.5328C13.0224 22.8861 13.9987 13.2737 14.2697 9.76589C17.6968 8.40103 23.7361 5.80943 27.4851 3.03469C27.4801 3.03098 27.4751 3.02727 27.4701 3.02357V1.54541Z" fill="white"/>
<path d="M15.2629 10.4945C18.2432 9.53785 23.7972 6.80447 27.5 4.43555C31.2027 6.80447 36.7592 9.53785 39.7394 10.4945C40.191 14.8679 40.9713 23.5646 38.6105 27.6237C35.4045 33.136 31.564 35.0949 27.5 37.7827C23.436 35.0949 19.5978 33.136 16.3918 27.6237C14.031 23.5646 14.8114 14.8679 15.2629 10.4945Z" fill="#AA0101"/>
<path d="M27.5005 10.4944C28.0242 10.4944 28.4488 10.0661 28.4488 9.53774C28.4488 9.00938 28.0242 8.58105 27.5005 8.58105C26.9768 8.58105 26.5522 9.00938 26.5522 9.53774C26.5522 10.0661 26.9768 10.4944 27.5005 10.4944Z" fill="white"/>
<path d="M27.5005 32.5437C28.0242 32.5437 28.4488 32.1154 28.4488 31.5871C28.4488 31.0587 28.0242 30.6304 27.5005 30.6304C26.9768 30.6304 26.5522 31.0587 26.5522 31.5871C26.5522 32.1154 26.9768 32.5437 27.5005 32.5437Z" fill="white"/>
<path d="M21.6293 13.5015H16.1655V13.8659C16.6622 13.8659 17.6557 14.4126 17.9266 15.0959C18.1433 15.6426 20.5155 23.2808 21.7196 27.0317H22.8937L26.7319 14.5493V25.2094C26.7319 26.0841 25.9191 26.4242 25.5127 26.5306V27.0317H28.9896V26.5306C28.5681 26.3635 27.7253 25.9383 27.7253 25.2094V16.6448L31.2022 26.895L34.8598 15.4148C34.8447 18.7252 34.7605 25.4645 34.5437 25.9383C34.327 26.4121 33.9718 26.5002 33.8212 26.5306V27.0317H38.3819V26.5306C38.0207 26.4547 37.0609 26.376 36.9821 25.9383C36.8918 25.4372 36.9821 14.6859 37.2982 14.2304C37.5511 13.8659 38.1261 13.8356 38.3819 13.8659V13.5015H34.5437L31.8344 21.8383L29.2154 13.5015H24.2032V13.8659C24.5945 13.8659 25.4043 14.0026 25.5127 14.5493C25.621 15.0959 23.9322 20.7297 23.0743 23.4783C22.2163 20.4868 20.6035 15.0624 20.5456 14.7315C20.4101 13.957 21.0423 13.957 21.6293 13.8659V13.5015Z" fill="white"/>
</svg>
