<svg width="137" height="40" viewBox="0 0 137 40" fill="none" xmlns="http://www.w3.org/2000/svg">
<path d="M114.943 34.0756L114.658 33.6766L116.368 34.0756V35.0826L113.48 35.2156L113.214 33.3916L113.366 33.4486C112.821 34.0692 112.232 34.5316 111.599 34.8356C110.966 35.1396 110.351 35.2916 109.756 35.2916C109.021 35.2916 108.388 35.0509 107.856 34.5696C107.337 34.0882 107.077 33.3662 107.077 32.4036C107.077 31.6689 107.235 31.0989 107.552 30.6936C107.869 30.2756 108.312 29.9779 108.882 29.8006C109.452 29.6232 110.123 29.5346 110.896 29.5346H113.214L113.043 29.7436V28.1096C113.043 27.4509 112.872 26.9822 112.53 26.7036C112.188 26.4122 111.713 26.2666 111.105 26.2666C110.788 26.2666 110.453 26.2982 110.098 26.3616C109.756 26.4249 109.382 26.5262 108.977 26.6656L109.243 26.3996L109.034 28.0906H107.78L107.628 25.5636C108.401 25.3229 109.11 25.1456 109.756 25.0316C110.415 24.9049 111.023 24.8416 111.58 24.8416C112.644 24.8416 113.467 25.0759 114.05 25.5446C114.645 26.0132 114.943 26.7542 114.943 27.7676V34.0756ZM108.996 32.2706C108.996 32.8152 109.129 33.2206 109.395 33.4866C109.661 33.7399 109.997 33.8666 110.402 33.8666C110.807 33.8666 111.251 33.7399 111.732 33.4866C112.226 33.2206 112.701 32.8722 113.157 32.4416L113.043 32.9166V30.5606L113.214 30.7506H111.2C110.364 30.7506 109.788 30.8772 109.471 31.1306C109.154 31.3839 108.996 31.7639 108.996 32.2706Z" fill="white"/>
<path d="M94.2324 35.1016V34.0946L96.0374 33.6386L95.6574 34.0566V26.1146L96.1514 26.5516L94.2324 26.0766V25.0886L98.8304 24.9746V25.9626L97.0444 26.4756L97.4624 26.0766V32.0046L97.1774 31.9476L102.535 26.5896L102.364 26.9506L102.345 26.1146L102.668 26.4566L100.996 26.0766V25.0886L105.575 24.9746V25.9626L103.77 26.4756L104.169 26.0766V34.0566L103.789 33.6386L105.575 34.0946V35.1016H100.996V34.0946L102.687 33.6956L102.345 34.0566V27.8436L102.611 28.0526L97.2724 33.5436L97.4624 33.1826V34.0566L97.3104 33.7716L98.8304 34.0946V35.1016H94.2324Z" fill="white"/>
<path d="M82.0878 38.1986L82.0308 34.0186L83.7408 33.6956L82.7148 34.0946C83.1454 33.7906 83.5191 33.4422 83.8358 33.0496C84.1524 32.6569 84.4121 32.1629 84.6148 31.5676C84.8301 30.9722 84.9884 30.2312 85.0898 29.3446C85.1911 28.4579 85.2481 27.3686 85.2608 26.0766L85.7548 26.4946L83.7028 26.0196V25.0316H92.6708V26.0196L90.8658 26.5136L91.2458 26.0956V34.0566L90.8658 33.7336L93.2218 34.0566L93.1838 38.1986H91.9868L91.5118 34.8166L91.9488 35.1016H83.2658L83.7408 34.8166L83.2658 38.1986H82.0878ZM84.4438 34.0186L84.4628 33.6766H89.7068L89.3458 33.9996V26.0196L89.6688 26.4566H86.2488L86.6288 26.0006C86.6288 27.5206 86.5591 28.8062 86.4198 29.8576C86.2804 30.9089 86.0524 31.7639 85.7358 32.4226C85.4191 33.0812 84.9884 33.6132 84.4438 34.0186Z" fill="white"/>
<path d="M77.0286 35.2916C76.1546 35.2916 75.3819 35.1016 74.7106 34.7216C74.0519 34.3289 73.5326 33.7589 73.1526 33.0116C72.7852 32.2516 72.6016 31.3269 72.6016 30.2376C72.6016 29.1229 72.7916 28.1666 73.1716 27.3686C73.5642 26.5579 74.1152 25.9372 74.8246 25.5066C75.5466 25.0632 76.3889 24.8416 77.3516 24.8416C78.2762 24.8416 79.0299 25.0316 79.6126 25.4116C80.2079 25.7916 80.6449 26.3172 80.9236 26.9886C81.2149 27.6472 81.3606 28.4009 81.3606 29.2496C81.3606 29.4142 81.3542 29.5789 81.3416 29.7436C81.3289 29.9082 81.3099 30.0982 81.2846 30.3136H74.0836V29.0026H79.5746L79.4036 29.1166C79.4162 28.5972 79.3529 28.1222 79.2136 27.6916C79.0742 27.2609 78.8399 26.9189 78.5106 26.6656C78.1812 26.3996 77.7442 26.2666 77.1996 26.2666C76.6042 26.2666 76.1102 26.4312 75.7176 26.7606C75.3249 27.0772 75.0336 27.5142 74.8436 28.0716C74.6536 28.6289 74.5586 29.2686 74.5586 29.9906C74.5586 30.7632 74.6662 31.4409 74.8816 32.0236C75.0969 32.5936 75.4199 33.0432 75.8506 33.3726C76.2939 33.6892 76.8386 33.8476 77.4846 33.8476C77.9406 33.8476 78.4346 33.7589 78.9666 33.5816C79.5112 33.4042 80.0686 33.1382 80.6386 32.7836L81.3036 33.8286C80.5942 34.3226 79.8722 34.6899 79.1376 34.9306C78.4156 35.1712 77.7126 35.2916 77.0286 35.2916Z" fill="white"/>
<path d="M71.2314 22.8086L69.3694 23.3026L69.6734 22.7896V34.0756L69.3694 33.6576L71.2314 34.0946V35.1016H66.3104V34.0946L68.2104 33.6576L67.8684 34.0756V23.9296L68.1724 23.9486L64.1254 31.6436L62.8714 31.7196L58.9574 23.9106L59.2424 23.8916V34.0756L58.9954 33.6956L60.8194 34.0946V35.1016H56.1074V34.0946L57.9504 33.6576L57.6654 34.0756V22.7896L57.9504 23.2836L56.1074 22.9036V21.8966L60.0404 21.8016L63.8404 29.7816H63.5744L67.5074 21.8966L71.2314 21.8016V22.8086Z" fill="white"/>
<path d="M135.075 14.0756L134.79 13.6766L136.5 14.0756V15.0826L133.612 15.2156L133.346 13.3916L133.498 13.4486C132.953 14.0692 132.364 14.5316 131.731 14.8356C131.098 15.1396 130.483 15.2916 129.888 15.2916C129.153 15.2916 128.52 15.0509 127.988 14.5696C127.469 14.0882 127.209 13.3662 127.209 12.4036C127.209 11.6689 127.367 11.0989 127.684 10.6936C128.001 10.2756 128.444 9.9779 129.014 9.80057C129.584 9.62323 130.255 9.53457 131.028 9.53457H133.346L133.175 9.74357V8.10957C133.175 7.4509 133.004 6.98223 132.662 6.70357C132.32 6.41223 131.845 6.26657 131.237 6.26657C130.92 6.26657 130.585 6.29823 130.23 6.36157C129.888 6.4249 129.514 6.52623 129.109 6.66557L129.375 6.39957L129.166 8.09057H127.912L127.76 5.56357C128.533 5.3229 129.242 5.14557 129.888 5.03157C130.547 4.9049 131.155 4.84157 131.712 4.84157C132.776 4.84157 133.599 5.0759 134.182 5.54457C134.777 6.01323 135.075 6.75423 135.075 7.76757V14.0756ZM129.128 12.2706C129.128 12.8152 129.261 13.2206 129.527 13.4866C129.793 13.7399 130.129 13.8666 130.534 13.8666C130.939 13.8666 131.383 13.7399 131.864 13.4866C132.358 13.2206 132.833 12.8722 133.289 12.4416L133.175 12.9166V10.5606L133.346 10.7506H131.332C130.496 10.7506 129.92 10.8772 129.603 11.1306C129.286 11.3839 129.128 11.7639 129.128 12.2706Z" fill="white"/>
<path d="M114.364 15.1016V14.0946L116.169 13.6386L115.789 14.2466V5.94356L116.283 6.55156L114.364 6.07656V5.08856L119.038 4.97456V5.96256L117.252 6.47556L117.689 5.90556V9.66756L117.176 9.15456H122.914L122.382 9.66756V5.94356L122.705 6.45656L121.033 6.07656V5.08856L125.707 4.97456V5.96256L123.902 6.47556L124.282 5.90556V14.2466L123.902 13.6386L125.707 14.0946V15.1016H121.033V14.0946L122.724 13.6956L122.382 14.2466V10.0286L122.914 10.5416H117.176L117.689 10.0286V14.2466L117.347 13.6956L119.038 14.0946V15.1016H114.364Z" fill="white"/>
<path d="M108.534 15.2916C107.66 15.2916 106.888 15.1016 106.216 14.7216C105.558 14.3289 105.038 13.7589 104.658 13.0116C104.291 12.2516 104.107 11.3269 104.107 10.2376C104.107 9.1229 104.297 8.16657 104.677 7.36857C105.07 6.5579 105.621 5.93723 106.33 5.50657C107.052 5.06323 107.895 4.84157 108.857 4.84157C109.782 4.84157 110.536 5.03157 111.118 5.41157C111.714 5.79157 112.151 6.31723 112.429 6.98857C112.721 7.64723 112.866 8.4009 112.866 9.24957C112.866 9.41423 112.86 9.5789 112.847 9.74357C112.835 9.90824 112.816 10.0982 112.79 10.3136H105.589V9.00257H111.08L110.909 9.11657C110.922 8.59723 110.859 8.12224 110.719 7.69157C110.58 7.2609 110.346 6.9189 110.016 6.66557C109.687 6.39957 109.25 6.26657 108.705 6.26657C108.11 6.26657 107.616 6.43123 107.223 6.76057C106.831 7.07723 106.539 7.51423 106.349 8.07157C106.159 8.6289 106.064 9.26857 106.064 9.99057C106.064 10.7632 106.172 11.4409 106.387 12.0236C106.603 12.5936 106.926 13.0432 107.356 13.3726C107.8 13.6892 108.344 13.8476 108.99 13.8476C109.446 13.8476 109.94 13.7589 110.472 13.5816C111.017 13.4042 111.574 13.1382 112.144 12.7836L112.809 13.8286C112.1 14.3226 111.378 14.6899 110.643 14.9306C109.921 15.1712 109.218 15.2916 108.534 15.2916Z" fill="white"/>
<path d="M92.2524 6.64656H92.5564V14.1136L92.3474 13.7146L93.8864 14.0946V15.1016H89.6494V14.0946L91.3214 13.6956L91.0744 14.1136V6.01956L91.3974 6.51356L89.6494 6.07656V5.08856L93.1644 4.97456L96.5464 12.1566H95.7484L99.1684 5.08856L102.645 4.97456V5.96256L100.916 6.47556L101.239 5.96256V14.0946L100.992 13.6956L102.645 14.0946V15.1016H98.2754V14.0946L99.8144 13.7146L99.5674 14.0186V6.55156H99.8714L96.4894 13.4676L95.5774 13.5246L92.2524 6.64656Z" fill="white"/>
<path d="M83.8196 15.2916C82.9456 15.2916 82.1729 15.1016 81.5016 14.7216C80.8429 14.3289 80.3236 13.7589 79.9436 13.0116C79.5762 12.2516 79.3926 11.3269 79.3926 10.2376C79.3926 9.1229 79.5826 8.16657 79.9626 7.36857C80.3552 6.5579 80.9062 5.93723 81.6156 5.50657C82.3376 5.06323 83.1799 4.84157 84.1426 4.84157C85.0672 4.84157 85.8209 5.03157 86.4036 5.41157C86.9989 5.79157 87.4359 6.31723 87.7146 6.98857C88.0059 7.64723 88.1516 8.4009 88.1516 9.24957C88.1516 9.41423 88.1452 9.5789 88.1326 9.74357C88.1199 9.90824 88.1009 10.0982 88.0756 10.3136H80.8746V9.00257H86.3656L86.1946 9.11657C86.2072 8.59723 86.1439 8.12224 86.0046 7.69157C85.8652 7.2609 85.6309 6.9189 85.3016 6.66557C84.9722 6.39957 84.5352 6.26657 83.9906 6.26657C83.3952 6.26657 82.9012 6.43123 82.5086 6.76057C82.1159 7.07723 81.8246 7.51423 81.6346 8.07157C81.4446 8.6289 81.3496 9.26857 81.3496 9.99057C81.3496 10.7632 81.4572 11.4409 81.6726 12.0236C81.8879 12.5936 82.2109 13.0432 82.6416 13.3726C83.0849 13.6892 83.6296 13.8476 84.2756 13.8476C84.7316 13.8476 85.2256 13.7589 85.7576 13.5816C86.3022 13.4042 86.8596 13.1382 87.4296 12.7836L88.0946 13.8286C87.3852 14.3226 86.6632 14.6899 85.9286 14.9306C85.2066 15.1712 84.5036 15.2916 83.8196 15.2916Z" fill="white"/>
<path d="M67.658 19.4716V18.4646L69.349 18.0276L69.064 18.3696V6.20957L69.311 6.49457L67.658 6.09557V5.08857L70.546 4.95557L70.774 6.60857L70.546 6.47557C71.1413 5.9309 71.724 5.52557 72.294 5.25957C72.8766 4.9809 73.4593 4.84157 74.042 4.84157C74.7513 4.84157 75.3846 5.0379 75.942 5.43057C76.512 5.82323 76.9616 6.39323 77.291 7.14057C77.6203 7.87523 77.785 8.78723 77.785 9.87657C77.785 11.0546 77.5823 12.0489 77.177 12.8596C76.7716 13.6702 76.2016 14.2846 75.467 14.7026C74.7323 15.1079 73.871 15.3106 72.883 15.3106C72.5536 15.3106 72.2053 15.2789 71.838 15.2156C71.4706 15.1649 71.0906 15.0889 70.698 14.9876L70.964 14.7596V18.3696L70.736 18.0656L72.617 18.4646V19.4716H67.658ZM72.655 13.9236C73.7063 13.9236 74.4916 13.5816 75.011 12.8976C75.543 12.2136 75.809 11.2699 75.809 10.0666C75.809 9.26857 75.7013 8.5909 75.486 8.03357C75.2706 7.46357 74.9793 7.02657 74.612 6.72257C74.2446 6.41857 73.8203 6.26657 73.339 6.26657C72.9336 6.26657 72.5093 6.37423 72.066 6.58957C71.6226 6.8049 71.1793 7.13423 70.736 7.57757L70.964 7.02657V13.9806L70.717 13.5816C71.4263 13.8096 72.0723 13.9236 72.655 13.9236Z" fill="white"/>
<path d="M62.2254 8.43256L62.3584 8.22356C63.2198 8.23623 63.9544 8.36289 64.5624 8.60356C65.1831 8.84423 65.6518 9.20523 65.9684 9.68656C66.2851 10.1552 66.4434 10.7506 66.4434 11.4726C66.4434 12.2072 66.2661 12.8469 65.9114 13.3916C65.5568 13.9362 65.0121 14.3606 64.2774 14.6646C63.5554 14.9559 62.6371 15.1016 61.5224 15.1016H56.1074V14.0946L57.9504 13.6576L57.6654 14.0756V2.88456L58.0074 3.30256L56.1074 2.90356V1.89656L59.5274 1.80156H61.7504C62.6624 1.80156 63.4288 1.92823 64.0494 2.18156C64.6701 2.42223 65.1388 2.78323 65.4554 3.26456C65.7721 3.74589 65.9304 4.34756 65.9304 5.06956C65.9304 6.01956 65.6328 6.77956 65.0374 7.34956C64.4548 7.91956 63.5174 8.28056 62.2254 8.43256ZM61.3514 3.20756H59.2804L59.6034 2.86556V7.93856L59.2804 7.63456H60.8954C61.5541 7.63456 62.1114 7.55223 62.5674 7.38756C63.0361 7.22289 63.3844 6.96956 63.6124 6.62756C63.8531 6.28556 63.9734 5.85489 63.9734 5.33556C63.9734 4.82889 63.8658 4.42356 63.6504 4.11956C63.4478 3.80289 63.1501 3.57489 62.7574 3.43556C62.3774 3.28356 61.9088 3.20756 61.3514 3.20756ZM61.3514 13.6956C62.0228 13.6956 62.5864 13.6132 63.0424 13.4486C63.4984 13.2712 63.8468 13.0116 64.0874 12.6696C64.3281 12.3149 64.4484 11.8716 64.4484 11.3396C64.4484 10.8202 64.3408 10.3896 64.1254 10.0476C63.9101 9.70556 63.6061 9.44589 63.2134 9.26856C62.8334 9.09123 62.3838 9.00256 61.8644 9.00256H59.2804L59.6034 8.64156V14.0186L59.2804 13.6956H61.3514Z" fill="white"/>
<g clip-path="url(#clip0_7104_679)">
<path d="M8.29545 5.49242C9.60159 3.71132 9.50758 1.24999 13.9394 0.0378723C12.6894 3.37121 9.68182 4.83333 9.01515 5.22727C8.34848 5.62121 7.46213 7.19696 7.08333 8.10605C8.2197 6.7803 9.58333 5.03787 12.6136 5.22727C9.58333 8.40908 7.53788 7.68939 6.40152 9.20454C5.87424 9.90757 5.03788 11.9192 4.92424 13.3712C5.30303 12.5758 5.98485 9.62121 9.4697 9.2803C9.16667 10.6439 7.12121 12.4621 5.34091 13.5606C3.69652 15.1894 4.16667 18.7879 4.31818 19.6212C4.43358 18.5303 4.41248 14.8485 7.57576 13.9015C6.7803 17.5379 5.26515 18.2576 4.58333 20.2273C4.4697 22.2727 5.26515 23.8636 5.90909 25C5.60606 23.0303 5.03788 20.9848 7.27273 18.447C7.72727 22.9167 6.74146 23.0361 6.43939 24.8485C6.09848 26.8939 8.18182 28.5985 9.24242 29.8864C8.86364 28.8257 6.62879 26.9697 8.56061 22.9924C10.3409 26.8182 9.33621 27.561 9.58333 29.4318C9.84492 31.4126 12.7002 32.7297 14.0376 33.3466L14.0909 33.3712C11.0985 31.3257 10.8712 29.1288 11.0227 27.3106C13.9394 29.5833 13.7879 32.0454 14.7348 33.2576C15.0035 33.6014 16.4015 34.6212 18.8258 35.2651C21.8561 36.25 24.697 37.5757 27.4242 39.6212L26.3636 40C23.4091 37.5 19.0634 35.8712 17.5 35.8712C15.5682 35.8712 13.5227 37.7273 9.43182 35.8712C12.2348 34.3561 14.9621 34.8485 16.6288 35.2651C15.1515 34.4318 13.9015 33.7121 12.4242 33.5227C8.75 33.5985 7.53788 33.5227 4.92424 31.2879C8.14394 30.7954 10.5682 32.1464 11.7045 32.803C9.24242 31.0606 9.2803 30.303 7.80303 29.697C6.07695 28.9889 3.93939 29.4318 1.36364 25.4167C4.81061 25.6061 6.25 27.8409 7.53788 28.9773C6.25 27.3106 5.94697 26.4394 5.26515 25.4167C4.20455 23.8258 1.02273 24.0151 0 18.7879C3.72273 20.5303 3.78788 23.2197 4.92424 24.3939C4.31818 23.2576 3.81818 20.6439 3.33333 19.4318C2.72727 17.9167 0.0757575 17.2727 0.643942 12.0833C4.14334 15.8333 2.72727 17.803 3.56061 18.6742C3.40909 16.553 3.71212 15.7576 3.75 14.3561C3.78788 12.9545 1.28789 11.1364 3.25758 6.24999C4.65909 8.29545 4.24242 11.6036 4.16667 13.3712C4.81061 10.6061 4.6598 11.6701 5.5303 9.69696C6.09848 8.40908 4.20455 4.77272 7.46212 1.70454C8.03788 3.03787 7.08333 6.55302 6.25 8.40908C7.34848 6.51514 7.87879 6.0606 8.29545 5.49242Z" fill="white"/>
<path d="M37.8409 5.49242C36.5348 3.71132 36.6288 1.24999 32.197 0.0378723C33.447 3.37121 36.4546 4.83333 37.1213 5.22727C37.7879 5.62121 38.6743 7.19696 39.0531 8.10605C37.9167 6.7803 36.5531 5.03787 33.5228 5.22727C36.5531 8.40908 38.5985 7.68939 39.7349 9.20454C40.2622 9.90757 41.0985 11.9192 41.2122 13.3712C40.8334 12.5758 40.1516 9.62121 36.6667 9.2803C36.9697 10.6439 39.0152 12.4621 40.7955 13.5606C42.4399 15.1894 41.9697 18.7879 41.8182 19.6212C41.7028 18.5303 41.7239 14.8485 38.5606 13.9015C39.3561 17.5379 40.8713 18.2576 41.5531 20.2273C41.6667 22.2727 40.8713 23.8636 40.2273 25C40.5303 23.0303 41.0985 20.9848 38.8637 18.447C38.4091 22.9167 39.395 23.0361 39.697 24.8485C40.0379 26.8939 37.9546 28.5985 36.894 29.8864C37.2728 28.8257 39.5076 26.9697 37.5758 22.9924C35.7955 26.8182 36.8002 27.561 36.5531 29.4318C36.2915 31.4126 33.4362 32.7297 32.0988 33.3466L32.0455 33.3712C35.0379 31.3257 35.2652 29.1288 35.1137 27.3106C32.197 29.5833 32.3485 32.0454 31.4016 33.2576C31.1329 33.6014 29.7349 34.6212 27.3106 35.2651C24.2803 36.25 21.4394 37.5757 18.7122 39.6212L19.7728 40C22.7273 37.5 27.073 35.8712 28.6364 35.8712C30.5682 35.8712 32.6137 37.7273 36.7046 35.8712C33.9016 34.3561 31.1743 34.8485 29.5076 35.2651C30.9849 34.4318 32.2349 33.7121 33.7122 33.5227C37.3864 33.5985 38.5985 33.5227 41.2122 31.2879C37.9925 30.7954 35.5682 32.1464 34.4319 32.803C36.894 31.0606 36.8561 30.303 38.3334 29.697C40.0594 28.9889 42.197 29.4318 44.7728 25.4167C41.3258 25.6061 39.8864 27.8409 38.5985 28.9773C39.8864 27.3106 40.1894 26.4394 40.8713 25.4167C41.9319 23.8258 45.1137 24.0151 46.1364 18.7879C42.4137 20.5303 42.3485 23.2197 41.2122 24.3939C41.8182 23.2576 42.3182 20.6439 42.8031 19.4318C43.4091 17.9167 46.0606 17.2727 45.4925 12.0833C41.9931 15.8333 43.4091 17.803 42.5758 18.6742C42.7273 16.553 42.4243 15.7576 42.3864 14.3561C42.3485 12.9545 44.8485 11.1364 42.8788 6.24999C41.4773 8.29545 41.894 11.6036 41.9697 13.3712C41.3258 10.6061 41.4766 11.6701 40.6061 9.69696C40.0379 8.40908 41.9319 4.77272 38.6743 1.70454C38.0985 3.03787 39.0531 6.55302 39.8864 8.40908C38.7879 6.51514 38.2576 6.0606 37.8409 5.49242Z" fill="white"/>
<path d="M35.0127 7.5C32.1339 6.28788 26.6793 4.2803 23.043 1.25V1.27095V2.5C23.0472 2.50308 23.0514 2.50617 23.0556 2.50925C26.2005 4.81637 31.2665 6.97121 34.1415 8.10606C34.3688 11.0227 35.1877 19.0152 33.3839 22.8788C31.3415 27.2535 27.2557 29.7677 23.0556 32.4163C23.0514 32.4189 23.0472 32.4216 23.043 32.4242V33.5045V33.5227C25.2399 31.9318 31.9445 28.4848 34.2551 23.2576C36.1137 19.053 35.2399 8.82576 35.0127 7.5Z" fill="white"/>
<path d="M23.043 1.27095C19.4067 4.28956 13.9707 6.29067 11.0985 7.5C10.8713 8.82575 9.99764 19.053 11.8561 23.2576C14.1579 28.465 20.8204 31.9056 23.043 33.5045V32.4242C23.0473 32.4216 23.0514 32.4189 23.0557 32.4163C18.8555 29.7677 14.7698 27.2535 12.7273 22.8788C10.9235 19.0151 11.7425 11.0227 11.9698 8.10606C14.8447 6.97121 19.9107 4.81637 23.0557 2.50925C23.0514 2.50616 23.0473 2.50308 23.043 2.5V1.27095Z" fill="white"/>
<path d="M12.8031 8.71212C15.3031 7.91666 19.9622 5.64394 23.0683 3.67424C26.1743 5.64394 30.8354 7.91666 33.3354 8.71212C33.7142 12.3485 34.3688 19.5795 32.3884 22.9545C29.699 27.5379 26.4774 29.1667 23.0683 31.4015C19.6592 29.1667 16.4395 27.5379 13.7501 22.9545C11.7697 19.5795 12.4243 12.3485 12.8031 8.71212Z" fill="#AA0101"/>
<path d="M23.0682 8.71212C23.5075 8.71212 23.8636 8.35599 23.8636 7.91667C23.8636 7.47735 23.5075 7.12122 23.0682 7.12122C22.6288 7.12122 22.2727 7.47735 22.2727 7.91667C22.2727 8.35599 22.6288 8.71212 23.0682 8.71212Z" fill="white"/>
<path d="M23.0682 27.0455C23.5075 27.0455 23.8636 26.6893 23.8636 26.25C23.8636 25.8107 23.5075 25.4545 23.0682 25.4545C22.6288 25.4545 22.2727 25.8107 22.2727 26.25C22.2727 26.6893 22.6288 27.0455 23.0682 27.0455Z" fill="white"/>
<path d="M18.1439 11.2121H13.5605V11.5152C13.9772 11.5152 14.8105 11.9697 15.0378 12.5379C15.2196 12.9924 17.2096 19.3434 18.2196 22.4621H19.2045L22.4242 12.0833V20.947C22.4242 21.6742 21.7424 21.9571 21.4015 22.0455V22.4621H24.3181V22.0455C23.9646 21.9066 23.2575 21.553 23.2575 20.947V13.8258L26.1742 22.3485L29.2424 12.803C29.2297 15.5555 29.159 21.1591 28.9772 21.553C28.7954 21.947 28.4974 22.0202 28.3712 22.0455V22.4621H32.1969V22.0455C31.8939 21.9824 31.0888 21.917 31.0227 21.553C30.9469 21.1364 31.0227 12.197 31.2878 11.8182C31.4999 11.5152 31.9823 11.4899 32.1969 11.5152V11.2121H28.9772L26.7045 18.1439L24.5075 11.2121H20.303V11.5152C20.6312 11.5152 21.3105 11.6288 21.4015 12.0833C21.4924 12.5379 20.0757 17.2222 19.356 19.5076C18.6363 17.0202 17.2834 12.51 17.2348 12.2349C17.1212 11.5909 17.6515 11.5909 18.1439 11.5152V11.2121Z" fill="white"/>
</g>
<defs>
<clipPath id="clip0_7104_679">
<rect width="46.1364" height="40" fill="white"/>
</clipPath>
</defs>
</svg>
