<svg width="21" height="21" viewBox="0 0 21 21" fill="none" xmlns="http://www.w3.org/2000/svg">
<path d="M8.1603 6.0424C8.00509 6.19854 7.91797 6.40975 7.91797 6.6299C7.91797 6.85006 8.00509 7.06127 8.1603 7.2174L11.1103 10.2091L8.1603 13.1591C8.00509 13.3152 7.91797 13.5264 7.91797 13.7466C7.91797 13.9667 8.00509 14.1779 8.1603 14.3341C8.23776 14.4122 8.32993 14.4742 8.43148 14.5165C8.53303 14.5588 8.64195 14.5806 8.75196 14.5806C8.86197 14.5806 8.97089 14.5588 9.07244 14.5165C9.17399 14.4742 9.26616 14.4122 9.34363 14.3341L12.877 10.8007C12.9551 10.7233 13.0171 10.6311 13.0594 10.5295C13.1017 10.428 13.1235 10.3191 13.1235 10.2091C13.1235 10.0991 13.1017 9.99014 13.0594 9.88859C13.0171 9.78704 12.9551 9.69487 12.877 9.6174L9.34363 6.0424C9.26616 5.96429 9.17399 5.9023 9.07244 5.85999C8.97089 5.81768 8.86197 5.7959 8.75196 5.7959C8.64195 5.7959 8.53303 5.81768 8.43148 5.85999C8.32993 5.9023 8.23776 5.96429 8.1603 6.0424Z" fill="white"/>
</svg>
