<svg width="7" height="12" viewBox="0 0 7 12" fill="none" xmlns="http://www.w3.org/2000/svg">
<path d="M0.942647 1.02752C0.756397 1.21488 0.651855 1.46833 0.651855 1.73252C0.651855 1.9967 0.756397 2.25015 0.942647 2.43752L4.48265 6.02752L0.942648 9.56752C0.756397 9.75488 0.651855 10.0083 0.651855 10.2725C0.651855 10.5367 0.756397 10.7902 0.942648 10.9775C1.03561 11.0712 1.14621 11.1456 1.26807 11.1964C1.38993 11.2472 1.52064 11.2733 1.65265 11.2733C1.78466 11.2733 1.91537 11.2472 2.03722 11.1964C2.15908 11.1456 2.26968 11.0712 2.36265 10.9775L6.60265 6.73752C6.69637 6.64455 6.77077 6.53395 6.82154 6.41209C6.87231 6.29023 6.89844 6.15953 6.89844 6.02752C6.89844 5.8955 6.87231 5.7648 6.82154 5.64294C6.77077 5.52108 6.69637 5.41048 6.60265 5.31752L2.36265 1.02752C2.26968 0.933788 2.15908 0.859394 2.03722 0.808625C1.91536 0.757856 1.78466 0.731717 1.65265 0.731717C1.52064 0.731717 1.38993 0.757856 1.26807 0.808625C1.14621 0.859394 1.03561 0.933788 0.942647 1.02752Z" fill="black"/>
</svg>
