<svg width="21" height="21" viewBox="0 0 21 21" fill="none" xmlns="http://www.w3.org/2000/svg">
<path d="M17.5835 17.2383L18.8335 18.4883Z" fill="white"/>
<path d="M17.5835 17.2383L18.8335 18.4883" stroke="white" stroke-width="1.5" stroke-linecap="round" stroke-linejoin="round"/>
<path d="M13 15.1548C13 16.5355 14.1192 17.6548 15.5 17.6548C16.1916 17.6548 16.8175 17.374 17.2701 16.9202C17.7212 16.468 18 15.844 18 15.1548C18 13.774 16.8807 12.6548 15.5 12.6548C14.1192 12.6548 13 13.774 13 15.1548Z" stroke="white" stroke-width="1.5" stroke-linecap="round" stroke-linejoin="round"/>
<path d="M17.1668 10.1546V4.94506C17.1668 4.81246 17.1142 4.68528 17.0204 4.59151L14.3966 1.96774C14.3028 1.87396 14.1757 1.82129 14.0431 1.82129H4.3335C4.05735 1.82129 3.8335 2.04515 3.8335 2.32129V17.988C3.8335 18.2641 4.05735 18.488 4.3335 18.488H9.66683" stroke="white" stroke-width="1.5" stroke-linecap="round" stroke-linejoin="round"/>
<path d="M13.8335 4.65462V2.11591C13.8335 1.9532 13.9654 1.82129 14.1282 1.82129C14.2062 1.82129 14.2812 1.85233 14.3365 1.90758L17.0805 4.65166C17.1358 4.70691 17.1668 4.78186 17.1668 4.86C17.1668 5.02271 17.0349 5.15462 16.8722 5.15462H14.3335C14.0573 5.15462 13.8335 4.93076 13.8335 4.65462Z" fill="white" stroke="white" stroke-width="1.5" stroke-linecap="round" stroke-linejoin="round"/>
</svg>
