<svg width="203" height="200" viewBox="0 0 203 200" fill="none" xmlns="http://www.w3.org/2000/svg">
<path d="M202.956 57.581L184.28 163.532C183.769 166.318 182.187 168.794 179.872 170.427C178.039 171.692 175.901 172.347 173.763 172.347C173.108 172.347 172.498 172.303 171.843 172.216L158.097 169.816C158.097 169.03 158.01 168.245 157.879 167.459L157.094 162.965L172.978 165.757C174.068 165.976 175.203 165.714 176.119 165.059C177.036 164.448 177.603 163.488 177.821 162.397L195.939 59.6756L172.978 55.6174C170.189 55.1139 167.711 53.5292 166.085 51.2082C164.459 48.8872 163.815 46.0177 164.294 43.2244L168.343 20.2888L90.8088 6.61288C90.5793 6.56234 90.3456 6.53313 90.1107 6.52561C88.147 6.52561 86.3579 7.96563 86.0088 9.97294L83.0415 26.9041L76.1468 28.126L79.5505 8.83838C80.054 6.04939 81.6387 3.57215 83.9597 1.94582C86.2807 0.319489 89.1501 -0.324293 91.9434 0.154592L172.716 14.3803C173.588 14.5548 174.33 15.0348 174.81 15.733L202.389 55.1374C202.913 55.8356 203.087 56.7083 202.956 57.581ZM117.646 29.0642C118.5 29.2103 119.378 29.0131 120.088 28.5154C120.798 28.0178 121.283 27.2599 121.438 26.4067C121.589 25.552 121.394 24.6724 120.896 23.9612C120.399 23.2501 119.639 22.7657 118.785 22.6146L98.7552 19.0844C97.8999 18.9339 97.0199 19.1294 96.3087 19.6278C95.5976 20.1261 95.1136 20.8866 94.9631 21.7419C94.8127 22.5971 95.0081 23.4771 95.5065 24.1883C96.0049 24.8994 96.7653 25.3835 97.6206 25.5339L117.646 29.0642ZM179.174 75.3413C179.349 75.385 179.523 75.385 179.741 75.385C181.269 75.385 182.665 74.294 182.97 72.7231C183.276 70.934 182.054 69.2321 180.309 68.9267L139.246 61.6829L140.424 68.4903L179.174 75.3413ZM180.003 89.9161C180.078 89.492 180.069 89.0572 179.976 88.6366C179.883 88.216 179.708 87.8179 179.46 87.4652C179.213 87.1125 178.899 86.8121 178.535 86.5812C178.171 86.3503 177.766 86.1935 177.341 86.1197L142.475 79.9669L143.653 86.8615L176.207 92.578C176.381 92.578 176.556 92.6216 176.774 92.6216C178.301 92.6216 179.698 91.4871 180.003 89.9161ZM174.287 103.313L145.704 98.2508L146.883 105.102L173.152 109.727C173.37 109.771 173.545 109.815 173.719 109.815C174.544 109.824 175.342 109.521 175.953 108.967C176.564 108.413 176.944 107.648 177.016 106.827C177.087 106.005 176.846 105.186 176.34 104.535C175.834 103.883 175.101 103.447 174.287 103.313ZM167.654 144.157C168.473 144.167 169.266 143.866 169.873 143.316C170.481 142.766 170.858 142.007 170.93 141.191C171.002 140.374 170.762 139.561 170.26 138.914C169.758 138.266 169.03 137.832 168.221 137.699L152.119 134.862L153.341 141.67L167.087 144.113C167.305 144.157 167.479 144.157 167.654 144.157ZM151.451 168.576C151.949 171.391 151.32 174.236 149.68 176.575C148.039 178.914 145.587 180.481 142.772 180.982L35.861 199.834C34.4765 200.082 33.0567 200.052 31.6837 199.747C30.3106 199.442 29.0118 198.868 27.8623 198.058C26.7083 197.254 25.7254 196.229 24.9703 195.042C24.2153 193.856 23.7032 192.531 23.4637 191.146L0.165836 59.0385C-0.0815156 57.6541 -0.0519101 56.2343 0.25294 54.8613C0.557789 53.4884 1.13183 52.1895 1.94187 51.0398C2.74575 49.8859 3.77063 48.9029 4.95713 48.1478C6.14362 47.3928 7.46816 46.8807 8.85398 46.6412L89.6001 32.4024C90.4541 32.2553 91.3317 32.4496 92.0438 32.9435L131.426 60.5222C132.137 61.0184 132.622 61.7764 132.775 62.6299L151.451 168.576ZM145.006 169.715L126.897 67.0067L103.944 71.0256C103.333 71.1565 102.722 71.2002 102.111 71.2002C97.0053 71.2002 92.4671 67.5347 91.5507 62.3418L87.5317 39.4193L9.98855 53.0908C9.45037 53.1844 8.93608 53.3837 8.47544 53.6774C8.01479 53.971 7.61693 54.353 7.30487 54.8013C6.99007 55.2478 6.76704 55.7524 6.64868 56.2857C6.53033 56.8191 6.51902 57.3706 6.6154 57.9083L29.9089 190.015C30.1009 191.106 30.7075 192.062 31.6195 192.699C32.5271 193.336 33.6268 193.58 34.7264 193.388L141.633 174.537C142.719 174.345 143.683 173.729 144.316 172.826C144.948 171.923 145.196 170.801 145.006 169.715ZM22.844 68.5427L42.8735 65.0124C43.297 64.9374 43.7015 64.7796 44.064 64.5482C44.4266 64.3168 44.7399 64.0162 44.9863 63.6637C45.2327 63.3112 45.4072 62.9136 45.4999 62.4936C45.5926 62.0736 45.6017 61.6395 45.5266 61.216C45.4515 60.7925 45.2938 60.388 45.0624 60.0255C44.831 59.6629 44.5304 59.3495 44.1779 59.1032C43.8254 58.8568 43.4277 58.6823 43.0078 58.5896C42.5878 58.4969 42.1537 58.4878 41.7302 58.5629L21.7051 62.0975C20.8593 62.2579 20.1107 62.7451 19.6215 63.4535C19.1324 64.162 18.9421 65.0347 19.0919 65.8825C19.2417 66.7303 19.7196 67.4849 20.4219 67.9828C21.1242 68.4808 21.9945 68.6819 22.844 68.5427ZM25.8768 85.7357L45.9019 82.2011C46.7427 82.036 47.4852 81.5477 47.9699 80.8411C48.4546 80.1346 48.643 79.2661 48.4944 78.4223C48.3459 77.5784 47.8723 76.8264 47.1754 76.3279C46.4786 75.8293 45.614 75.624 44.7673 75.7559L24.7379 79.2861C23.8826 79.4372 23.1224 79.9218 22.6244 80.6333C22.1265 81.3449 21.9315 82.2251 22.0826 83.0804C22.2336 83.9356 22.7182 84.6959 23.4298 85.1939C24.1413 85.6918 25.0216 85.8867 25.8768 85.7357ZM28.9052 102.924L116.502 87.4768C117.343 87.3117 118.086 86.8234 118.57 86.1169C119.055 85.4103 119.243 84.5419 119.095 83.698C118.946 82.8541 118.473 82.1022 117.776 81.6036C117.079 81.1051 116.214 80.8997 115.368 81.0316L27.7663 96.4748C26.911 96.6252 26.1506 97.1093 25.6522 97.8204C25.1538 98.5316 24.9584 99.4116 25.1088 100.267C25.2593 101.122 25.7433 101.883 26.4545 102.381C27.1656 102.879 28.0456 103.075 28.9009 102.924H28.9052ZM31.938 120.113L119.605 104.657C120.46 104.505 121.22 104.02 121.718 103.308C122.215 102.596 122.41 101.716 122.258 100.86C122.107 100.005 121.621 99.245 120.909 98.7475C120.197 98.2499 119.317 98.0556 118.462 98.2072L30.7991 113.663C29.9438 113.814 29.1836 114.299 28.6856 115.011C28.1877 115.722 27.9927 116.602 28.1438 117.458C28.2948 118.313 28.7794 119.073 29.491 119.571C30.2025 120.069 31.0828 120.264 31.938 120.113ZM34.9708 137.306L122.629 121.845C123.484 121.695 124.245 121.211 124.743 120.5C125.242 119.789 125.437 118.909 125.287 118.053C125.136 117.198 124.652 116.438 123.941 115.939C123.23 115.441 122.35 115.245 121.494 115.396L33.8275 130.856C32.9728 131.008 32.2134 131.493 31.7162 132.205C31.2191 132.916 31.0249 133.796 31.1765 134.651C31.3282 135.505 31.8131 136.265 32.5246 136.762C33.2362 137.259 34.1161 137.458 34.9708 137.306ZM76.9104 140.985L36.8646 148.045C36.0239 148.21 35.2814 148.699 34.7966 149.405C34.3119 150.112 34.1236 150.98 34.2721 151.824C34.4207 152.668 34.8942 153.42 35.5911 153.918C36.288 154.417 37.1526 154.622 37.9992 154.49L78.0494 147.43C78.8901 147.265 79.6326 146.776 80.1174 146.07C80.6021 145.363 80.7904 144.495 80.6419 143.651C80.4933 142.807 80.0198 142.055 79.3229 141.557C78.626 141.058 77.7571 140.853 76.9104 140.985ZM97.4024 158.418C97.4767 158.842 97.6339 159.247 97.865 159.61C98.0961 159.973 98.3966 160.287 98.7493 160.534C99.1019 160.781 99.4998 160.956 99.9202 161.049C100.34 161.141 100.775 161.151 101.199 161.075L128.69 156.223C129.531 156.058 130.274 155.569 130.758 154.863C131.243 154.156 131.431 153.288 131.283 152.444C131.134 151.6 130.661 150.848 129.964 150.35C129.267 149.851 128.402 149.646 127.556 149.778L100.06 154.626C99.6359 154.7 99.2307 154.857 98.8675 155.088C98.5044 155.319 98.1904 155.62 97.9435 155.972C97.6967 156.325 97.5218 156.723 97.429 157.143C97.3361 157.564 97.3271 157.994 97.4024 158.418Z" fill="#DEDDDD"/>
</svg>
