<svg width="256" height="256" viewBox="0 0 256 256" fill="none" xmlns="http://www.w3.org/2000/svg">
<path fill-rule="evenodd" clip-rule="evenodd" d="M174.779 85.9641C170.795 82.4717 165.066 82.5512 161.778 83.5663C163.931 80.922 168.947 78.7538 170.426 78.4907C171.551 78.9125 174.779 82.2295 174.779 85.9641ZM187.499 71.5017C184.878 57.4863 152.307 66.7728 135.905 60.8199C135.59 64.9054 140.955 71.4515 146.085 73.8745C137.315 81.4859 129.441 96.821 127.853 115.558C126.268 96.821 118.394 81.4859 109.624 73.8745C114.755 71.4515 120.123 64.9054 119.804 60.8199C103.402 66.7728 70.831 57.4863 68.2063 71.5017C67.6541 74.4678 69.0812 78.9877 70.6229 80.2869C70.8989 79.347 72.3387 76.2724 76.8789 75.5831C99.8263 72.1158 118.985 107.482 101.691 121.782C101.427 121.999 101.576 122.4 101.933 122.4H153.781C154.134 122.4 154.282 121.999 154.023 121.782C136.725 107.482 155.883 72.1158 178.831 75.5831C183.375 76.2724 184.81 79.347 185.087 80.2869C186.628 78.9877 188.055 74.4678 187.499 71.5017ZM193.079 39.3351C192.668 38.0109 206.123 37.9774 206.123 46.3992C206.123 52.043 198.074 54.7166 198.074 60.5734C198.074 63.3013 201.009 65.3023 201.909 65.3023C199.837 55.8988 208.407 60.8199 210.722 62.5786C206.123 49.9334 216.477 50.0128 215.458 44.2144C214.748 40.1622 205.748 41.3863 202.491 39.3351C196.711 35.6966 189.873 21.539 185.366 35.6965C193.768 43.4959 188.879 54.9756 178.214 54.9756C178.214 54.9756 178.155 56.6592 178.253 56.7928C190.973 56.1704 195.407 46.8212 193.079 39.3351ZM44.6773 62.5786C46.992 60.8199 55.5626 55.8988 53.4943 65.3023C54.3904 65.3023 57.3252 63.3013 57.3252 60.5734C57.3252 54.7166 49.277 52.043 49.277 46.3992C49.277 37.9774 62.7318 38.0109 62.3198 39.3351C59.9966 46.8212 64.4306 56.1704 77.1507 56.7928C77.2441 56.6592 77.1847 54.9756 77.1847 54.9756C66.5244 54.9756 61.636 43.4959 70.0326 35.6965C65.5263 21.539 58.6885 35.6966 52.9082 39.3351C49.6507 41.3863 40.6511 40.1622 39.9418 44.2144C38.9267 50.0128 49.277 49.9334 44.6773 62.5786ZM80.7947 85.9641C84.7827 82.4717 90.5123 82.5512 93.7953 83.5663C91.6502 80.922 86.6259 78.7538 85.1522 78.4907C84.0267 78.9125 80.7947 82.2295 80.7947 85.9641ZM133.904 7.56541L127.699 0L121.494 7.56541L127.699 15.5277L133.904 7.56541ZM169.326 30.4413L164.913 25.0649L160.504 30.4413L164.913 35.6965L169.326 30.4413ZM205.116 185.852L199.522 179.933L193.929 185.852L199.522 191.044L205.116 185.852ZM94.8996 30.4413L90.4867 25.0649L86.0781 30.4413L90.4867 35.6965L94.8996 30.4413ZM82.2599 56.7928H98.7175C112.555 56.7928 118.781 48.3 120.662 40.9351H134.741C136.623 48.3 142.845 56.7928 156.687 56.7928H173.144C173.144 56.7928 176.023 52.8869 176.745 50.9527C179.344 43.993 176.023 40.7471 171.177 40.7471L164.913 46.4243L158.648 40.7471C153.803 40.7471 150.481 43.993 153.08 50.9527C153.411 51.8425 154.206 53.15 154.957 54.2988C149.118 53.4968 141.664 49.4989 140.029 40.9351C140.029 40.9351 144.344 34.0799 145.427 31.306C149.317 21.3302 144.348 17.253 137.081 17.253L127.699 28.2816L118.317 17.253C111.051 17.253 106.081 21.3302 109.976 31.306C111.055 34.0799 115.374 40.9351 115.374 40.9351C113.735 49.4989 106.282 53.4968 100.442 54.2988C101.198 53.15 101.988 51.8425 102.319 50.9527C104.914 43.993 101.601 40.7471 96.7507 40.7471L90.4867 46.4243L84.2221 40.7471C79.3719 40.7471 76.0591 43.993 78.6541 50.9527C79.3761 52.8869 82.2599 56.7928 82.2599 56.7928ZM252.412 107.808C249.235 109.416 230.598 118.148 206.726 114.918C206.976 113.778 207.18 112.629 207.354 111.48C223.242 109.579 236.158 106.885 244.389 102.306C253.771 97.0849 257.874 84.6189 253.138 75.3449C253.015 75.111 252.675 75.0693 252.505 75.2656C249.91 78.2525 233.592 96.0026 207.885 101.521C207.817 100.18 207.698 98.8557 207.519 97.5395C220.006 90.4589 232.195 82.3005 238.001 74.8395C246.776 63.5603 245.969 49.1731 237.619 41.8375C237.44 41.6787 237.152 41.7246 237.028 41.921C234.387 46.2781 209.66 86.244 182.512 103.497C182.241 103.672 181.876 103.898 181.511 104.12C180.733 104.592 180.648 105.603 181.311 106.204C184.441 109.04 186.386 112.988 186.386 117.371C186.386 124.99 180.512 131.327 172.748 132.702C168.803 133.466 163.108 133.244 157.637 131.436C157.391 131.356 157.137 131.52 157.137 131.766V155.9C157.137 156.288 157.726 156.384 157.867 156.012C161.192 147.202 171.148 145.33 175.501 145.33C177.068 154.747 179.867 162.546 183.502 166.744C189.423 173.566 199.089 173.47 203.281 168.753C203.426 168.59 203.383 168.336 203.188 168.227C200.725 166.81 186.632 158.159 183.813 143.981C184.925 143.597 186.013 143.162 187.053 142.649C191.601 150.176 198.223 156.881 203.553 159.442C212.506 163.736 220.702 161.647 224.338 155.36C224.47 155.139 224.308 154.863 224.041 154.839C218.503 154.395 201.506 149.524 194.269 137.656C195.097 136.896 195.908 136.102 196.664 135.258C204.236 141.023 214.943 146.12 222.61 147.16C231.58 148.38 241.743 145.518 241.989 135.087C241.994 134.878 241.806 134.707 241.586 134.72C238.396 134.912 217.283 135.831 202.24 127.196C202.763 126.205 203.247 125.195 203.701 124.163C203.701 124.163 226.432 129.535 237.203 127.755C247.905 125.988 254.174 118.01 252.964 108.084C252.93 107.838 252.641 107.691 252.412 107.808ZM51.6977 124.163C52.1522 125.195 52.6406 126.205 53.163 127.196C38.124 135.827 17.0202 134.916 13.8179 134.72C13.5928 134.707 13.4059 134.886 13.4101 135.091C13.6607 145.518 23.8198 148.38 32.7897 147.16C40.4515 146.12 51.1626 141.023 58.7352 135.258C59.4954 136.102 60.3024 136.896 61.1305 137.656C53.8893 149.524 36.8966 154.395 31.3584 154.839C31.0908 154.863 30.9337 155.139 31.0611 155.36C34.6966 161.647 42.8936 163.736 51.8506 159.442C57.1765 156.881 63.7978 150.176 68.3464 142.649C69.3912 143.162 70.4784 143.597 71.5869 143.981C68.7668 158.159 54.675 166.81 52.2117 168.227C52.0206 168.336 51.9739 168.59 52.1182 168.753C56.3102 173.47 65.9808 173.566 71.9013 166.744C75.5367 162.546 78.3314 154.747 79.8985 145.33C84.2561 145.33 94.2066 147.202 97.5329 156.012C97.6767 156.384 98.2673 156.288 98.2673 155.9V131.766C98.2673 131.52 98.0078 131.356 97.7615 131.436C92.2919 133.244 86.5962 133.466 82.6549 132.702C74.8869 131.327 69.0132 124.99 69.0132 117.371C69.0132 112.988 70.9626 109.037 74.0885 106.2C74.7553 105.603 74.6661 104.592 73.8931 104.12C73.5236 103.898 73.1584 103.672 72.8823 103.497C45.7518 86.2524 21.038 46.3157 18.375 41.9294C18.2519 41.7246 17.9546 41.6829 17.7719 41.8416C9.43488 49.1815 8.62366 63.5645 17.3982 74.8395C23.204 82.3005 35.3931 90.4589 47.8754 97.5395C47.7012 98.8557 47.5781 100.18 47.5144 101.521C21.8279 96.0071 5.52328 78.2859 2.90282 75.2781C2.72868 75.0734 2.38043 75.1153 2.2615 75.3492C-2.46552 84.6273 1.63718 97.0849 11.0105 102.306C19.2414 106.885 32.1568 109.579 48.0452 111.48C48.2194 112.629 48.4232 113.778 48.6739 114.918C24.8264 118.143 6.19857 109.433 2.99626 107.812C2.75841 107.691 2.46961 107.841 2.43988 108.092C1.2337 118.018 7.49818 125.988 18.2009 127.755C28.9672 129.535 51.6977 124.163 51.6977 124.163ZM199.522 198.668L191.24 192.152C187.936 194.119 185.507 197.244 184.564 200.907C179.583 201.605 166 198.589 167.321 196.588C182.207 175.65 170.82 163.185 157.137 163.878V177.939C157.137 182.456 153.195 186.115 148.341 186.115H138.891C132.112 186.115 127.699 192.929 127.699 192.929C127.699 192.929 123.287 186.115 116.509 186.115H107.059C102.2 186.115 98.2673 182.456 98.2673 177.939V163.878C84.5831 163.185 73.1881 175.65 88.0784 196.588C89.3868 198.568 75.4263 201.739 68.8773 200.937C67.153 199.149 64.6641 198.02 61.8781 198.02C60.6507 198.02 59.4827 198.246 58.4082 198.644C58.4082 198.644 32.675 174.28 32.2036 174.042L32.4159 173.549C33.8812 170.809 31.6387 167.822 30.2201 168.03C31.8681 166.055 31.9445 157.403 22.8047 155.403C23.0723 157.14 23.2082 160.687 23.2082 160.687C23.2082 160.687 16.1537 156.872 12.6117 160.164C9.49853 163.849 13.8179 170.533 13.8179 170.533C13.8179 170.533 10.2078 170.62 8.42829 170.47C11.0445 179.318 19.819 178.692 21.7175 176.945C21.5944 178.353 24.7669 180.358 27.4553 178.75L28.636 178.178C28.8441 178.458 53.9062 202.136 53.9062 202.136C52.7553 203.844 52.2075 205.941 52.5854 208.177C53.18 211.669 56.0893 214.563 59.8055 215.315C62.4302 215.842 64.8978 215.332 66.877 214.175L73.5109 220.333C74.1013 220.867 74.8997 221.202 75.7916 221.139C77.414 221.03 78.6287 219.714 78.5054 218.206C78.4545 217.526 78.1063 216.941 77.6263 216.497C77.5202 216.381 70.8692 210.207 70.8692 210.207C76.3565 206.359 86.5792 203.648 95.0647 203.648C96.5556 203.648 97.2566 202.387 96.7428 201.15C92.8993 191.905 101.164 185.208 109.713 190.66C113.442 193.037 117.231 197.72 120.085 205.532C106.057 208.928 88.4437 218.286 84.8804 228.499C83.5086 232.444 88.0402 237.82 93.5446 238.902C93.7529 238.948 93.9524 238.81 93.9904 238.613C96.8655 223.365 113.264 212.002 121.796 210.073C122.225 211.221 122.085 210.85 122.514 211.994C113.221 216.389 104.209 225.659 101.635 236.679C100.455 241.726 106.081 246.275 110.728 247.519C110.962 247.582 111.191 247.42 111.204 247.194C112.087 233.257 118.241 221.423 123.754 216.038C123.903 217.074 124.017 218.135 124.094 219.209C124.094 219.209 118.45 234.937 118.45 246.412C118.45 251.751 126.383 255.477 127.555 256C129.021 255.477 136.95 251.751 136.95 246.412C136.95 234.937 131.305 219.209 131.305 219.209C131.386 218.135 131.497 217.074 131.65 216.038C137.158 221.423 143.316 233.254 144.195 247.19C144.208 247.415 144.442 247.582 144.671 247.519C149.322 246.275 154.945 241.726 153.768 236.679C151.19 225.659 142.182 216.389 132.89 211.994C133.315 210.85 133.174 211.221 133.603 210.073C142.14 212.002 158.533 223.365 161.409 238.613C161.447 238.81 161.651 238.948 161.855 238.902C167.355 237.82 171.895 232.444 170.515 228.499C166.96 218.286 149.343 208.928 135.315 205.532C138.173 197.72 141.961 193.037 145.69 190.66C154.236 185.208 162.5 191.905 158.657 201.15C158.143 202.387 158.84 203.648 160.334 203.648C169.933 203.648 181.757 207.115 186.437 211.765C189.427 216.251 194.952 219.121 201.187 218.507C208.271 217.814 214.047 212.491 214.846 205.912C215.543 200.147 212.561 194.971 207.809 192.152L199.522 198.668ZM138.479 156.672C141.431 155.577 146.055 156.464 145.898 160.724C145.86 161.69 147.215 161.69 147.313 160.704C148.196 154.325 143.886 152.486 139.375 153.234C138.814 151.041 138.356 149.124 137.833 147.223C137.417 145.685 137.264 142.799 139.044 142.799C140.003 142.799 139.617 145.485 139.527 146.642C139.447 147.657 139.813 148.271 140.636 148.301C141.15 148.321 141.792 147.665 142.174 147.231C144.756 144.311 145.355 139.791 142.331 137.611C139.799 135.781 133.463 137.143 131.722 139.75C131.458 138.767 130.201 137.146 129.598 136.441C129.012 135.751 128.859 135.279 129.671 134.674C130.053 134.381 131.207 133.232 131.207 132.046C131.207 131.344 130.665 130.049 128.935 130.049C127.572 130.049 126.056 130.993 126.056 133.099C126.056 133.567 126.17 134.068 126.472 134.607C125.61 134.464 123.27 134.523 122.068 134.819L138.687 180.425C143.443 178.077 146.93 174.36 146.93 170.37C146.93 166.969 141.923 168.098 139.489 170.75C138.708 166.439 138.012 162.458 137.252 158.49C137.043 157.395 137.599 157.002 138.479 156.672ZM114.98 125.692L118.471 135.392C115.481 136.102 110.673 138.283 110.673 141.17C110.673 145.013 117.473 147.515 121.405 147.214C121.21 148.092 121.435 148.873 122.047 149.587C120.62 149.587 117.927 150.252 117.044 151.204C114.959 149.261 111.697 148.555 110.147 149.738C108.588 150.928 108.541 152.946 110.168 155.227C111.301 156.806 111.727 158.364 110.452 160.193C115.192 160.193 113.446 154.032 115.303 154.032C115.06 155.227 115.209 156.609 115.749 158.143C116.105 159.162 116.105 159.884 115.493 160.866C113.965 163.31 111.586 168.925 111.909 174.001C110.355 173.992 109.565 173.612 110.112 171.49C110.316 170.7 109.828 170.136 109.183 171.11C108.468 172.183 108.125 174.017 108.125 174.802C108.125 179.323 113.51 180.233 115.566 179.277C121.511 185.031 133.191 183.496 137.103 181.566L116.539 125.141C116.118 124.075 114.61 124.585 114.98 125.692ZM114.266 172.171C113.841 169.848 117.074 165.696 121.185 161.69C120.31 164.3 120.854 168.799 122.569 170.349C119.588 170.349 116.045 170.909 114.266 172.171Z" fill="#DEDDDD"/>
</svg>
