<svg width="16" height="16" viewBox="0 0 16 16" fill="none" xmlns="http://www.w3.org/2000/svg">
<path fill-rule="evenodd" clip-rule="evenodd" d="M10.9056 5.37276C10.6566 5.15448 10.2985 5.15945 10.0931 5.22289C10.2276 5.05762 10.5411 4.92211 10.6335 4.90567C10.7039 4.93203 10.9056 5.13934 10.9056 5.37276ZM11.7006 4.46886C11.5368 3.59289 9.50113 4.1733 8.47603 3.80124C8.45633 4.05659 8.79161 4.46572 9.11228 4.61716C8.56414 5.09287 8.072 6.05131 7.97274 7.22234C7.87371 6.05131 7.38157 5.09287 6.83343 4.61716C7.1541 4.46572 7.4896 4.05659 7.46968 3.80124C6.44458 4.1733 4.40887 3.59289 4.24483 4.46886C4.21032 4.65423 4.29951 4.93673 4.39586 5.01793C4.41311 4.95919 4.5031 4.76702 4.78686 4.72394C6.22108 4.50724 7.41848 6.71763 6.3376 7.61137C6.3211 7.62494 6.33043 7.64999 6.35272 7.64999H9.59327C9.61528 7.64999 9.62455 7.62494 9.60839 7.61137C8.52723 6.71763 9.72463 4.50724 11.1588 4.72394C11.4429 4.76702 11.5326 4.95919 11.5498 5.01793C11.6462 4.93673 11.7354 4.65423 11.7006 4.46886ZM12.0494 2.45844C12.0237 2.37568 12.8646 2.37359 12.8646 2.89995C12.8646 3.25269 12.3615 3.41979 12.3615 3.78584C12.3615 3.95633 12.545 4.0814 12.6013 4.0814C12.4717 3.49368 13.0074 3.80124 13.1521 3.91116C12.8646 3.12084 13.5117 3.1258 13.4481 2.7634C13.4037 2.51014 12.8412 2.58664 12.6376 2.45844C12.2764 2.23103 11.849 1.34619 11.5673 2.23103C12.0924 2.71849 11.7869 3.43598 11.1203 3.43598C11.1203 3.43598 11.1166 3.5412 11.1228 3.54955C11.9177 3.51065 12.1949 2.92632 12.0494 2.45844ZM2.77427 3.91116C2.91894 3.80124 3.4546 3.49368 3.32533 4.0814C3.38134 4.0814 3.56476 3.95633 3.56476 3.78584C3.56476 3.41979 3.06174 3.25269 3.06174 2.89995C3.06174 2.37359 3.90267 2.37568 3.87692 2.45844C3.73172 2.92632 4.00884 3.51065 4.80385 3.54955C4.80969 3.5412 4.80597 3.43598 4.80597 3.43598C4.13971 3.43598 3.83418 2.71849 4.35897 2.23103C4.07733 1.34619 3.64996 2.23103 3.2887 2.45844C3.0851 2.58664 2.52263 2.51014 2.4783 2.7634C2.41485 3.1258 3.06174 3.12084 2.77427 3.91116ZM5.0316 5.37276C5.28085 5.15448 5.63895 5.15945 5.84414 5.22289C5.71007 5.05762 5.39605 4.92211 5.30394 4.90567C5.23361 4.93203 5.0316 5.13934 5.0316 5.37276ZM8.35095 0.472838L7.96314 0L7.57534 0.472838L7.96314 0.970483L8.35095 0.472838ZM10.5648 1.90258L10.289 1.56655L10.0135 1.90258L10.289 2.23103L10.5648 1.90258ZM12.8017 11.6157L12.4521 11.2458L12.1025 11.6157L12.4521 11.9402L12.8017 11.6157ZM5.91316 1.90258L5.63735 1.56655L5.36181 1.90258L5.63735 2.23103L5.91316 1.90258ZM5.12318 3.54955H6.15178C7.01661 3.54955 7.40574 3.01875 7.52331 2.55844H8.40325C8.52088 3.01875 8.90974 3.54955 9.77484 3.54955H10.8034C10.8034 3.54955 10.9834 3.30543 11.0285 3.18455C11.191 2.74956 10.9834 2.54669 10.6805 2.54669L10.289 2.90152L9.89743 2.54669C9.59459 2.54669 9.38698 2.74956 9.54946 3.18455C9.57015 3.24015 9.61981 3.32188 9.66676 3.39368C9.30179 3.34355 8.83592 3.09368 8.73374 2.55844C8.73374 2.55844 9.00342 2.12999 9.07112 1.95662C9.31426 1.33314 9.0037 1.07831 8.54952 1.07831L7.96314 1.7676L7.37677 1.07831C6.92265 1.07831 6.61203 1.33314 6.85545 1.95662C6.92287 2.12999 7.19283 2.55844 7.19283 2.55844C7.09037 3.09368 6.62455 3.34355 6.25953 3.39368C6.30681 3.32188 6.35619 3.24015 6.37688 3.18455C6.53903 2.74956 6.33203 2.54669 6.02885 2.54669L5.63735 2.90152L5.24581 2.54669C4.94268 2.54669 4.73563 2.74956 4.89781 3.18455C4.94294 3.30543 5.12318 3.54955 5.12318 3.54955ZM15.7577 6.73799C15.5591 6.83851 14.3943 7.38422 12.9023 7.1824C12.918 7.11112 12.9307 7.03928 12.9416 6.9675C13.9346 6.84872 14.7418 6.68033 15.2562 6.39415C15.8426 6.06781 16.099 5.28868 15.803 4.70906C15.7954 4.69444 15.7741 4.69183 15.7635 4.7041C15.6013 4.89078 14.5815 6.00017 12.9747 6.34505C12.9705 6.26124 12.9631 6.17848 12.9519 6.09622C13.7323 5.65368 14.4941 5.14378 14.857 4.67747C15.4054 3.97252 15.355 3.07332 14.8331 2.61484C14.822 2.60492 14.8039 2.60779 14.7962 2.62006C14.6311 2.89238 13.0857 5.39025 11.389 6.46858C11.372 6.4795 11.3492 6.49363 11.3263 6.50748C11.2777 6.53699 11.2724 6.60017 11.3139 6.63774C11.5095 6.81501 11.6311 7.06174 11.6311 7.33567C11.6311 7.81186 11.2639 8.20794 10.7787 8.29385C10.5321 8.34163 10.1762 8.32778 9.83426 8.21473C9.81887 8.20977 9.80298 8.21997 9.80298 8.23537V9.74372C9.80298 9.768 9.83983 9.77401 9.84861 9.75073C10.0564 9.20011 10.6787 9.08314 10.9507 9.08314C11.0487 9.67167 11.2236 10.1591 11.4508 10.4215C11.8209 10.8479 12.425 10.8419 12.687 10.5471C12.6961 10.5369 12.6934 10.521 12.6812 10.5142C12.5272 10.4257 11.6465 9.88497 11.4702 8.99879C11.5398 8.97479 11.6077 8.94764 11.6727 8.91553C11.957 9.38599 12.3709 9.80508 12.704 9.96513C13.2636 10.2335 13.7758 10.103 14.0031 9.71001C14.0113 9.69617 14.0012 9.67895 13.9845 9.67741C13.6383 9.64971 12.5761 9.34527 12.1238 8.60353C12.1755 8.55597 12.2262 8.50637 12.2734 8.45363C12.7467 8.81396 13.4159 9.13247 13.8951 9.19752C14.4557 9.27377 15.0909 9.0949 15.1063 8.44292C15.1065 8.4299 15.0948 8.4192 15.081 8.41997C14.8817 8.432 13.5622 8.48943 12.622 7.94974C12.6546 7.88783 12.6849 7.82466 12.7133 7.76017C12.7133 7.76017 14.134 8.09594 14.8071 7.98472C15.476 7.87426 15.8678 7.37561 15.7922 6.75526C15.7901 6.73986 15.772 6.7307 15.7577 6.73799ZM3.21304 7.76017C3.24145 7.82466 3.27197 7.88783 3.30462 7.94974C2.36468 8.48916 1.04569 8.43222 0.84555 8.41997C0.831481 8.4192 0.819801 8.4304 0.820066 8.4432C0.83573 9.0949 1.47067 9.27377 2.03129 9.19752C2.51015 9.13247 3.1796 8.81396 3.65288 8.45363C3.7004 8.50637 3.75084 8.55597 3.80259 8.60353C3.35001 9.34527 2.28797 9.64971 1.94183 9.67741C1.92511 9.67895 1.91529 9.69617 1.92326 9.71001C2.15047 10.103 2.66278 10.2335 3.2226 9.96513C3.55546 9.80508 3.9693 9.38599 4.25358 8.91553C4.31889 8.94764 4.38684 8.97479 4.45612 8.99879C4.27986 9.88497 3.39912 10.4257 3.24516 10.5142C3.23322 10.521 3.2303 10.5369 3.23932 10.5471C3.50132 10.8419 4.10573 10.8479 4.47576 10.4215C4.70298 10.1591 4.87764 9.67167 4.97559 9.08314C5.24794 9.08314 5.86985 9.20011 6.07774 9.75073C6.08673 9.77401 6.12364 9.768 6.12364 9.74372V8.23537C6.12364 8.21997 6.10742 8.20977 6.09203 8.21473C5.75018 8.32778 5.3942 8.34163 5.14787 8.29385C4.66237 8.20794 4.29526 7.81186 4.29526 7.33567C4.29526 7.06174 4.4171 6.81479 4.61246 6.63752C4.65414 6.60017 4.64856 6.53699 4.60025 6.50748C4.57716 6.49363 4.55433 6.4795 4.53708 6.46858C2.84142 5.39078 1.29681 2.89473 1.13037 2.62058C1.12268 2.60779 1.10409 2.60518 1.09268 2.6151C0.571614 3.07384 0.520913 3.97278 1.06932 4.67747C1.43218 5.14378 2.194 5.65368 2.97415 6.09622C2.96326 6.17848 2.95556 6.26124 2.95158 6.34505C1.34618 6.00044 0.327138 4.89287 0.16336 4.70488C0.152476 4.69209 0.13071 4.6947 0.123277 4.70932C-0.172161 5.28921 0.0842572 6.06781 0.670091 6.39415C1.18452 6.68033 1.99174 6.84872 2.98476 6.9675C2.99565 7.03928 3.00839 7.11112 3.02405 7.1824C1.53358 7.38394 0.369344 6.83956 0.1692 6.73826C0.154334 6.7307 0.136284 6.74008 0.134426 6.75575C0.0590401 7.37611 0.45057 7.87426 1.11949 7.98472C1.79239 8.09594 3.21304 7.76017 3.21304 7.76017ZM12.4521 12.4168L11.9345 12.0095C11.7279 12.1324 11.5761 12.3277 11.5172 12.5567C11.2058 12.6003 10.3569 12.4118 10.4395 12.2867C11.3699 10.9782 10.6582 10.1991 9.80298 10.2424V11.1212C9.80298 11.4035 9.55663 11.6322 9.25324 11.6322H8.66262C8.23895 11.6322 7.96314 12.058 7.96314 12.058C7.96314 12.058 7.68739 11.6322 7.26372 11.6322H6.6731C6.36943 11.6322 6.12364 11.4035 6.12364 11.1212V10.2424C5.26837 10.1991 4.55619 10.9782 5.48684 12.2867C5.56861 12.4105 4.69608 12.6087 4.28676 12.5586C4.179 12.4468 4.02344 12.3763 3.84931 12.3763C3.7726 12.3763 3.6996 12.3904 3.63245 12.4152C3.63245 12.4152 2.02412 10.8925 1.99466 10.8776L2.00793 10.8468C2.09951 10.6755 1.95935 10.4889 1.87069 10.5019C1.97369 10.3784 1.97847 9.83768 1.40723 9.71266C1.42395 9.82124 1.43245 10.0429 1.43245 10.0429C1.43245 10.0429 0.991542 9.80452 0.770163 10.0103C0.575592 10.2406 0.84555 10.6583 0.84555 10.6583C0.84555 10.6583 0.619923 10.6638 0.508702 10.6544C0.672215 11.2074 1.22062 11.1682 1.33928 11.0591C1.33158 11.1471 1.52986 11.2724 1.69789 11.1719L1.77169 11.1361C1.78469 11.1536 3.35107 12.6335 3.35107 12.6335C3.27914 12.7402 3.2449 12.8713 3.26852 13.011C3.30568 13.2293 3.48751 13.4102 3.71978 13.4572C3.88382 13.4901 4.03805 13.4583 4.16174 13.3859L4.57636 13.7708C4.61326 13.8042 4.66317 13.8251 4.71891 13.8212C4.82031 13.8144 4.89623 13.7321 4.88852 13.6379C4.88534 13.5954 4.86357 13.5588 4.83358 13.5311C4.82695 13.5238 4.41126 13.1379 4.41126 13.1379C4.75421 12.8974 5.39314 12.728 5.92348 12.728C6.01666 12.728 6.06047 12.6492 6.02836 12.5719C5.78814 11.994 6.30466 11.5755 6.83901 11.9162C7.07205 12.0648 7.30885 12.3575 7.48723 12.8457C6.61048 13.058 5.50967 13.6429 5.28696 14.2812C5.20122 14.5277 5.48445 14.8637 5.82847 14.9314C5.84149 14.9342 5.85396 14.9256 5.85633 14.9133C6.03603 13.9603 7.06091 13.2502 7.59421 13.1295C7.62102 13.2013 7.61225 13.1781 7.63906 13.2497C7.05826 13.5243 6.49501 14.1037 6.33412 14.7924C6.26036 15.1079 6.61203 15.3922 6.90245 15.47C6.91708 15.4739 6.93136 15.4637 6.93219 15.4496C6.98736 14.5786 7.37203 13.839 7.71658 13.5024C7.72585 13.5671 7.73302 13.6334 7.73782 13.7006C7.73782 13.7006 7.38505 14.6836 7.38505 15.4008C7.38505 15.7345 7.88088 15.9673 7.95415 16C8.04574 15.9673 8.5413 15.7345 8.5413 15.4008C8.5413 14.6836 8.18852 13.7006 8.18852 13.7006C8.19354 13.6334 8.2005 13.5671 8.21004 13.5024C8.55432 13.839 8.9392 14.5784 8.99415 15.4494C8.99492 15.4634 9.00954 15.4739 9.02389 15.47C9.31454 15.3922 9.66599 15.1079 9.59244 14.7924C9.43134 14.1037 8.8683 13.5243 8.28756 13.2497C8.3141 13.1781 8.30532 13.2013 8.33214 13.1295C8.86565 13.2502 9.89026 13.9603 10.07 14.9133C10.0724 14.9256 10.0851 14.9342 10.0979 14.9314C10.4416 14.8637 10.7254 14.5277 10.6391 14.2812C10.4169 13.6429 9.31586 13.058 8.43912 12.8457C8.61776 12.3575 8.85451 12.0648 9.08756 11.9162C9.62168 11.5755 10.1382 11.994 9.89798 12.5719C9.86587 12.6492 9.90941 12.728 10.0028 12.728C10.6028 12.728 11.3417 12.9447 11.6343 13.2353C11.8211 13.5157 12.1665 13.6951 12.5561 13.6567C12.9989 13.6134 13.3599 13.2807 13.4098 12.8695C13.4534 12.5092 13.267 12.1857 12.97 12.0095L12.4521 12.4168ZM8.63685 9.792C8.82135 9.72359 9.1104 9.77898 9.10058 10.0452C9.09821 10.1056 9.1829 10.1056 9.18896 10.044C9.24419 9.6453 8.97478 9.53037 8.69285 9.5771C8.65782 9.44005 8.62918 9.32022 8.59652 9.20144C8.57048 9.10532 8.56094 8.92491 8.67216 8.92491C8.73214 8.92491 8.70797 9.0928 8.7024 9.16513C8.69738 9.22858 8.72022 9.26692 8.7717 9.2688C8.80381 9.27007 8.84392 9.22908 8.86781 9.20193C9.02919 9.01942 9.06659 8.73694 8.87763 8.60066C8.71939 8.48629 8.32336 8.57142 8.21456 8.73435C8.19807 8.67294 8.1195 8.57164 8.08182 8.52756C8.04519 8.48447 8.03564 8.45495 8.08634 8.4171C8.11023 8.39884 8.1824 8.32701 8.1824 8.25286C8.1824 8.20899 8.14847 8.12805 8.04039 8.12805C7.9552 8.12805 7.86041 8.18709 7.86041 8.31868C7.86041 8.34792 7.86759 8.37926 7.88645 8.41291C7.83255 8.40403 7.68629 8.40767 7.6112 8.42621L8.64987 11.2766C8.94714 11.1298 9.16508 10.8975 9.16508 10.6481C9.16508 10.4356 8.85214 10.5061 8.70003 10.6719C8.6512 10.4024 8.60767 10.1536 8.56016 9.9056C8.54714 9.83719 8.5819 9.81263 8.63685 9.792ZM7.16816 7.85572L7.38637 8.46201C7.1995 8.50637 6.89898 8.6427 6.89898 8.82312C6.89898 9.06328 7.32397 9.2197 7.56976 9.20088C7.55757 9.25572 7.57164 9.30455 7.60988 9.34919C7.52066 9.34919 7.35239 9.39073 7.29716 9.45026C7.16684 9.32883 6.96298 9.28469 6.8661 9.35862C6.76866 9.43299 6.76574 9.55912 6.86742 9.70168C6.93826 9.80039 6.96485 9.89777 6.88519 10.0121C7.18141 10.0121 7.07233 9.62698 7.18836 9.62698C7.17319 9.70168 7.18251 9.78808 7.21622 9.88392C7.23851 9.94764 7.23851 9.99277 7.20027 10.0541C7.10472 10.2069 6.95608 10.5578 6.97622 10.875C6.87912 10.8745 6.82974 10.8508 6.86394 10.7181C6.87669 10.6687 6.84618 10.6335 6.80585 10.6943C6.76121 10.7614 6.73975 10.8761 6.73975 10.9251C6.73975 11.2077 7.0763 11.2646 7.2048 11.2048C7.57639 11.5644 8.30637 11.4685 8.55084 11.3479L7.2656 7.8213C7.23928 7.7547 7.14505 7.78654 7.16816 7.85572ZM7.12359 10.7607C7.09699 10.6155 7.29903 10.356 7.55597 10.1056C7.5013 10.2687 7.53528 10.55 7.64248 10.6468C7.45616 10.6468 7.23476 10.6818 7.12359 10.7607Z" fill="white"/>
</svg>
