<svg width="13" height="14" viewBox="0 0 13 14" fill="none" xmlns="http://www.w3.org/2000/svg">
<path d="M9.4999 12.6H3.8999C3.34295 12.6 2.8088 12.3788 2.41498 11.9849C2.02115 11.5911 1.7999 11.057 1.7999 10.5V3.5C1.7999 3.31435 1.72615 3.1363 1.59488 3.00503C1.4636 2.87375 1.28555 2.8 1.0999 2.8C0.914251 2.8 0.736203 2.87375 0.604928 3.00503C0.473652 3.1363 0.399902 3.31435 0.399902 3.5V10.5C0.399902 11.4283 0.768651 12.3185 1.42503 12.9749C2.08141 13.6313 2.97164 14 3.8999 14H9.4999C9.68555 14 9.8636 13.9263 9.99488 13.795C10.1262 13.6637 10.1999 13.4857 10.1999 13.3C10.1999 13.1143 10.1262 12.9363 9.99488 12.805C9.8636 12.6737 9.68555 12.6 9.4999 12.6ZM12.9999 4.858C12.9926 4.79369 12.9785 4.73034 12.9579 4.669V4.606C12.9242 4.53403 12.8794 4.46787 12.8249 4.41L8.6249 0.21C8.56704 0.155551 8.50088 0.110657 8.4289 0.0769999H8.3659L8.1419 0H5.2999C4.74295 0 4.2088 0.221249 3.81498 0.615076C3.42115 1.0089 3.1999 1.54305 3.1999 2.1V9.1C3.1999 9.65695 3.42115 10.1911 3.81498 10.5849C4.2088 10.9788 4.74295 11.2 5.2999 11.2H10.8999C11.4569 11.2 11.991 10.9788 12.3848 10.5849C12.7787 10.1911 12.9999 9.65695 12.9999 9.1V4.9V4.858ZM8.7999 2.387L10.6129 4.2H9.4999C9.31425 4.2 9.1362 4.12625 9.00493 3.99497C8.87365 3.8637 8.7999 3.68565 8.7999 3.5V2.387ZM11.5999 9.1C11.5999 9.28565 11.5262 9.4637 11.3949 9.59497C11.2636 9.72625 11.0856 9.8 10.8999 9.8H5.2999C5.11425 9.8 4.9362 9.72625 4.80493 9.59497C4.67365 9.4637 4.5999 9.28565 4.5999 9.1V2.1C4.5999 1.91435 4.67365 1.7363 4.80493 1.60503C4.9362 1.47375 5.11425 1.4 5.2999 1.4H7.3999V3.5C7.3999 4.05695 7.62115 4.5911 8.01498 4.98492C8.4088 5.37875 8.94295 5.6 9.4999 5.6H11.5999V9.1Z" fill="white"/>
</svg>
