<svg width="23" height="23" viewBox="0 0 23 23" fill="none" xmlns="http://www.w3.org/2000/svg">
<path d="M9.05591 1.00012C10.1137 1.00014 11.1616 1.20859 12.1389 1.6134C13.1161 2.01823 14.0043 2.61156 14.7522 3.3595C15.5001 4.10748 16.0935 4.99552 16.4983 5.97278C16.9031 6.95012 17.1116 7.99792 17.1116 9.05579C17.1116 10.1136 16.9031 11.1615 16.4983 12.1388C16.0935 13.116 15.5002 14.0041 14.7522 14.7521C14.0042 15.5 13.1161 16.0933 12.1389 16.4982C11.1616 16.903 10.1137 17.1114 9.05591 17.1115C7.99804 17.1115 6.95024 16.903 5.9729 16.4982C4.99564 16.0934 4.1076 15.5 3.35962 14.7521C2.61168 14.0041 2.01835 13.116 1.61353 12.1388C1.20871 11.1615 1.00026 10.1136 1.00024 9.05579C1.00024 7.99792 1.2087 6.95012 1.61353 5.97278C2.01835 4.9955 2.61164 4.10748 3.35962 3.3595C4.1076 2.61152 4.99563 2.01823 5.9729 1.6134C6.95025 1.20857 7.99804 1.00012 9.05591 1.00012Z" stroke="white" stroke-linecap="round" stroke-linejoin="round"/>
<path d="M22.5001 22.5001L15.1667 15.1668" stroke="white" stroke-linecap="round" stroke-linejoin="round"/>
</svg>
