<svg width="23" height="23" viewBox="0 0 23 23" fill="none" xmlns="http://www.w3.org/2000/svg">
<path d="M8.55566 0.5C9.6135 0.500014 10.6614 0.708466 11.6387 1.11328C12.6159 1.51811 13.504 2.11144 14.252 2.85938C14.9999 3.60735 15.5932 4.4954 15.998 5.47266C16.4029 6.45 16.6113 7.49779 16.6113 8.55566C16.6113 9.6135 16.4029 10.6614 15.998 11.6387C15.5932 12.6159 14.9999 13.504 14.252 14.252C13.504 14.9999 12.6159 15.5932 11.6387 15.998C10.6614 16.4029 9.6135 16.6113 8.55566 16.6113C7.49779 16.6113 6.45 16.4029 5.47266 15.998C4.4954 15.5932 3.60735 14.9999 2.85938 14.252C2.11144 13.504 1.51811 12.6159 1.11328 11.6387C0.708466 10.6614 0.500014 9.6135 0.5 8.55566C0.5 7.49779 0.708452 6.45 1.11328 5.47266C1.51811 4.49538 2.11139 3.60736 2.85938 2.85938C3.60736 2.11139 4.49538 1.51811 5.47266 1.11328C6.45 0.708452 7.49779 0.5 8.55566 0.5Z" stroke="black" stroke-linecap="round" stroke-linejoin="round"/>
<path d="M22 22L14.6666 14.6667" stroke="black" stroke-linecap="round" stroke-linejoin="round"/>
</svg>
