<svg width="16" height="14" viewBox="0 0 16 14" fill="none" xmlns="http://www.w3.org/2000/svg">
<path d="M12.704 8.14293H11.448C11.448 6.25253 9.9832 4.71413 8.1808 4.71413H6.0064C6.3744 4.03253 7.0608 3.57173 7.8464 3.57173H12.7048C13.8776 3.57173 14.8328 4.59653 14.8328 5.85733C14.8328 7.11733 13.8776 8.14293 12.7048 8.14293M5.7184 5.85733H8.1536C9.3272 5.85733 10.2816 6.88293 10.2816 8.14293H7.8464C6.6728 8.14293 5.7184 7.11733 5.7184 5.85733ZM8.1536 10.4285H3.2952C2.1216 10.4285 1.1672 9.40293 1.1672 8.14293C1.1672 6.88293 2.1216 5.85733 3.2952 5.85733H4.5512C4.5512 7.74773 6.0168 9.28533 7.8184 9.28533H9.9944C9.6248 9.96773 8.9384 10.4285 8.1536 10.4285ZM12.7328 2.42853H7.8184C6.4 2.42853 5.192 3.38453 4.7416 4.71413H3.2672C1.4656 4.71413 0 6.25253 0 8.14293C0 10.0333 1.4656 11.5717 3.2672 11.5717H8.1808C9.6008 11.5717 10.808 10.6149 11.2584 9.28533H12.7328C14.5344 9.28533 16 7.74773 16 5.85733C16 3.96693 14.5344 2.42853 12.7328 2.42853Z" fill="black"/>
</svg>
