<svg width="14" height="14" viewBox="0 0 14 14" fill="none" xmlns="http://www.w3.org/2000/svg">
<path d="M5.37907 14C4.77035 13.9971 4.16828 13.8731 3.60792 13.6353C3.04756 13.3975 2.54009 13.0506 2.11506 12.6148C1.69321 12.215 1.35435 11.7359 1.11786 11.205C0.881369 10.6741 0.751891 10.1017 0.736835 9.52072C0.721779 8.93971 0.821442 8.36143 1.03012 7.81897C1.2388 7.27651 1.55239 6.78053 1.95296 6.3594L7.3758 0.884992C7.66539 0.595929 8.01056 0.368552 8.39046 0.21659C8.77037 0.0646274 9.17713 -0.0087683 9.58619 0.00083406C10.0244 0.00232618 10.4579 0.0910469 10.8614 0.261822C11.2649 0.432597 11.6304 0.682009 11.9366 0.995512C12.5459 1.58218 12.8993 2.38549 12.92 3.23109C12.9406 4.07668 12.627 4.89632 12.0471 5.51208L6.59479 10.9865C6.42016 11.1623 6.21234 11.3017 5.98341 11.3966C5.75448 11.4914 5.50899 11.5399 5.26119 11.5391C4.99349 11.5394 4.72843 11.4862 4.48167 11.3824C4.2349 11.2786 4.01142 11.1265 3.82443 10.9349C3.45067 10.573 3.23482 10.0783 3.22379 9.55818C3.21275 9.03806 3.40742 8.53459 3.76549 8.15719L8.79782 3.10275C8.94104 3.00764 9.11301 2.9656 9.28396 2.98392C9.45491 3.00224 9.61407 3.07977 9.73388 3.20308C9.85369 3.32639 9.92661 3.48771 9.94 3.65912C9.9534 3.83052 9.90643 4.00122 9.80723 4.14164L4.7749 9.19608C4.69098 9.29717 4.65014 9.42719 4.66116 9.55812C4.67219 9.68904 4.7342 9.81039 4.83384 9.89603C4.93752 10.0004 5.07729 10.0611 5.22435 10.0655C5.27882 10.0663 5.33291 10.0563 5.3835 10.036C5.43408 10.0158 5.48016 9.98574 5.51906 9.94761L10.964 4.4732C11.2696 4.13367 11.4294 3.6875 11.4087 3.23114C11.388 2.77478 11.1886 2.34489 10.8535 2.0344C10.5423 1.71127 10.119 1.51972 9.67084 1.49916C9.22267 1.4786 8.78366 1.6306 8.44415 1.92388L2.99922 7.36882C2.73444 7.6532 2.52852 7.98713 2.39329 8.35141C2.25807 8.71567 2.1962 9.10309 2.21127 9.49136C2.22633 9.87962 2.31803 10.2611 2.48107 10.6138C2.64412 10.9665 2.8753 11.2834 3.16131 11.5465C3.44813 11.8438 3.79132 12.081 4.17084 12.2442C4.55036 12.4074 4.9586 12.4933 5.37171 12.4969C5.72789 12.4998 6.08113 12.4323 6.41115 12.2983C6.74116 12.1643 7.04145 11.9663 7.29475 11.7159L12.7397 6.24152C12.8079 6.17282 12.889 6.11823 12.9783 6.08086C13.0676 6.0435 13.1634 6.02409 13.2602 6.02375C13.357 6.02341 13.453 6.04214 13.5425 6.07887C13.6321 6.1156 13.7136 6.16962 13.7823 6.23783C13.851 6.30605 13.9055 6.38712 13.9429 6.47643C13.9803 6.56575 13.9997 6.66154 14 6.75835C14.0004 6.85516 13.9816 6.9511 13.9449 7.04067C13.9082 7.13024 13.8542 7.2117 13.7859 7.2804L8.341 12.7548C7.95441 13.1482 7.49349 13.4609 6.98501 13.6747C6.47654 13.8884 5.93065 13.999 5.37907 14Z" fill="white"/>
</svg>
