<svg width="44" height="25" viewBox="0 0 44 25" fill="none" xmlns="http://www.w3.org/2000/svg">
<rect x="0.500244" y="0.00012207" width="43" height="25" rx="3" fill="#AA0101"/>
<path d="M13.3562 9.92012C13.2709 9.09879 12.9722 8.50679 12.4602 8.14412C11.9589 7.77079 11.3136 7.58412 10.5242 7.58412C10.2042 7.58412 9.88958 7.61612 9.58024 7.68012C9.27091 7.74412 8.99358 7.85079 8.74824 8.00012C8.51358 8.14946 8.32158 8.35212 8.17224 8.60812C8.03358 8.85346 7.96424 9.16279 7.96424 9.53612C7.96424 9.88812 8.06558 10.1761 8.26824 10.4001C8.48158 10.6135 8.75891 10.7895 9.10024 10.9281C9.45224 11.0668 9.84691 11.1841 10.2842 11.2801C10.7216 11.3655 11.1642 11.4615 11.6122 11.5681C12.0709 11.6748 12.5189 11.8028 12.9562 11.9521C13.3936 12.0908 13.7829 12.2828 14.1242 12.5281C14.4762 12.7735 14.7536 13.0828 14.9562 13.4561C15.1696 13.8295 15.2762 14.2988 15.2762 14.8641C15.2762 15.4721 15.1376 15.9948 14.8602 16.4321C14.5936 16.8588 14.2469 17.2108 13.8202 17.4881C13.3936 17.7548 12.9136 17.9468 12.3802 18.0641C11.8576 18.1921 11.3349 18.2561 10.8122 18.2561C10.1722 18.2561 9.56424 18.1761 8.98824 18.0161C8.42291 17.8561 7.92158 17.6161 7.48424 17.2961C7.05758 16.9655 6.71624 16.5495 6.46024 16.0481C6.21491 15.5361 6.09224 14.9335 6.09224 14.2401H7.53224C7.53224 14.7201 7.62291 15.1361 7.80424 15.4881C7.99624 15.8295 8.24158 16.1121 8.54024 16.3361C8.84958 16.5601 9.20691 16.7255 9.61224 16.8321C10.0176 16.9388 10.4336 16.9921 10.8602 16.9921C11.2016 16.9921 11.5429 16.9601 11.8842 16.8961C12.2362 16.8321 12.5509 16.7255 12.8282 16.5761C13.1056 16.4161 13.3296 16.2028 13.5002 15.9361C13.6709 15.6695 13.7562 15.3281 13.7562 14.9121C13.7562 14.5175 13.6496 14.1975 13.4362 13.9521C13.2336 13.7068 12.9562 13.5095 12.6042 13.3601C12.2629 13.2001 11.8736 13.0721 11.4362 12.9761C10.9989 12.8801 10.5509 12.7841 10.0922 12.6881C9.64424 12.5815 9.20158 12.4641 8.76424 12.3361C8.32691 12.1975 7.93224 12.0215 7.58024 11.8081C7.23891 11.5841 6.96158 11.3015 6.74824 10.9601C6.54558 10.6081 6.44424 10.1708 6.44424 9.64812C6.44424 9.07212 6.56158 8.57612 6.79624 8.16012C7.03091 7.73346 7.34024 7.38679 7.72424 7.12012C8.11891 6.84279 8.56158 6.64012 9.05224 6.51212C9.55358 6.37346 10.0656 6.30412 10.5882 6.30412C11.1749 6.30412 11.7189 6.37346 12.2202 6.51212C12.7216 6.65079 13.1589 6.86945 13.5322 7.16812C13.9162 7.46679 14.2149 7.84545 14.4282 8.30412C14.6522 8.75212 14.7749 9.29079 14.7962 9.92012H13.3562ZM18.0032 12.2881C18.0032 12.8641 18.0779 13.4348 18.2272 14.0001C18.3766 14.5548 18.6112 15.0561 18.9312 15.5041C19.2512 15.9521 19.6619 16.3148 20.1632 16.5921C20.6646 16.8588 21.2619 16.9921 21.9552 16.9921C22.6486 16.9921 23.2459 16.8588 23.7472 16.5921C24.2486 16.3148 24.6592 15.9521 24.9792 15.5041C25.2992 15.0561 25.5339 14.5548 25.6832 14.0001C25.8326 13.4348 25.9072 12.8641 25.9072 12.2881C25.9072 11.7121 25.8326 11.1468 25.6832 10.5921C25.5339 10.0268 25.2992 9.52012 24.9792 9.07212C24.6592 8.62412 24.2486 8.26679 23.7472 8.00012C23.2459 7.72279 22.6486 7.58412 21.9552 7.58412C21.2619 7.58412 20.6646 7.72279 20.1632 8.00012C19.6619 8.26679 19.2512 8.62412 18.9312 9.07212C18.6112 9.52012 18.3766 10.0268 18.2272 10.5921C18.0779 11.1468 18.0032 11.7121 18.0032 12.2881ZM16.4832 12.2881C16.4832 11.5095 16.5952 10.7628 16.8192 10.0481C17.0539 9.32279 17.4006 8.68279 17.8592 8.12812C18.3179 7.57345 18.8886 7.13079 19.5712 6.80012C20.2539 6.46946 21.0486 6.30412 21.9552 6.30412C22.8619 6.30412 23.6566 6.46946 24.3392 6.80012C25.0219 7.13079 25.5926 7.57345 26.0512 8.12812C26.5099 8.68279 26.8512 9.32279 27.0752 10.0481C27.3099 10.7628 27.4272 11.5095 27.4272 12.2881C27.4272 13.0668 27.3099 13.8188 27.0752 14.5441C26.8512 15.2588 26.5099 15.8935 26.0512 16.4481C25.5926 17.0028 25.0219 17.4455 24.3392 17.7761C23.6566 18.0961 22.8619 18.2561 21.9552 18.2561C21.0486 18.2561 20.2539 18.0961 19.5712 17.7761C18.8886 17.4455 18.3179 17.0028 17.8592 16.4481C17.4006 15.8935 17.0539 15.2588 16.8192 14.5441C16.5952 13.8188 16.4832 13.0668 16.4832 12.2881ZM35.8875 9.92012C35.8022 9.09879 35.5035 8.50679 34.9915 8.14412C34.4902 7.77079 33.8448 7.58412 33.0555 7.58412C32.7355 7.58412 32.4208 7.61612 32.1115 7.68012C31.8022 7.74412 31.5248 7.85079 31.2795 8.00012C31.0448 8.14946 30.8528 8.35212 30.7035 8.60812C30.5648 8.85346 30.4955 9.16279 30.4955 9.53612C30.4955 9.88812 30.5968 10.1761 30.7995 10.4001C31.0128 10.6135 31.2902 10.7895 31.6315 10.9281C31.9835 11.0668 32.3782 11.1841 32.8155 11.2801C33.2528 11.3655 33.6955 11.4615 34.1435 11.5681C34.6022 11.6748 35.0502 11.8028 35.4875 11.9521C35.9248 12.0908 36.3142 12.2828 36.6555 12.5281C37.0075 12.7735 37.2848 13.0828 37.4875 13.4561C37.7008 13.8295 37.8075 14.2988 37.8075 14.8641C37.8075 15.4721 37.6688 15.9948 37.3915 16.4321C37.1248 16.8588 36.7782 17.2108 36.3515 17.4881C35.9248 17.7548 35.4448 17.9468 34.9115 18.0641C34.3888 18.1921 33.8662 18.2561 33.3435 18.2561C32.7035 18.2561 32.0955 18.1761 31.5195 18.0161C30.9542 17.8561 30.4528 17.6161 30.0155 17.2961C29.5888 16.9655 29.2475 16.5495 28.9915 16.0481C28.7462 15.5361 28.6235 14.9335 28.6235 14.2401H30.0635C30.0635 14.7201 30.1542 15.1361 30.3355 15.4881C30.5275 15.8295 30.7728 16.1121 31.0715 16.3361C31.3808 16.5601 31.7382 16.7255 32.1435 16.8321C32.5488 16.9388 32.9648 16.9921 33.3915 16.9921C33.7328 16.9921 34.0742 16.9601 34.4155 16.8961C34.7675 16.8321 35.0822 16.7255 35.3595 16.5761C35.6368 16.4161 35.8608 16.2028 36.0315 15.9361C36.2022 15.6695 36.2875 15.3281 36.2875 14.9121C36.2875 14.5175 36.1808 14.1975 35.9675 13.9521C35.7648 13.7068 35.4875 13.5095 35.1355 13.3601C34.7942 13.2001 34.4048 13.0721 33.9675 12.9761C33.5302 12.8801 33.0822 12.7841 32.6235 12.6881C32.1755 12.5815 31.7328 12.4641 31.2955 12.3361C30.8582 12.1975 30.4635 12.0215 30.1115 11.8081C29.7702 11.5841 29.4928 11.3015 29.2795 10.9601C29.0768 10.6081 28.9755 10.1708 28.9755 9.64812C28.9755 9.07212 29.0928 8.57612 29.3275 8.16012C29.5622 7.73346 29.8715 7.38679 30.2555 7.12012C30.6502 6.84279 31.0928 6.64012 31.5835 6.51212C32.0848 6.37346 32.5968 6.30412 33.1195 6.30412C33.7062 6.30412 34.2502 6.37346 34.7515 6.51212C35.2528 6.65079 35.6902 6.86945 36.0635 7.16812C36.4475 7.46679 36.7462 7.84545 36.9595 8.30412C37.1835 8.75212 37.3062 9.29079 37.3275 9.92012H35.8875Z" fill="white"/>
</svg>
