<svg width="16" height="14" viewBox="0 0 16 14" fill="none" xmlns="http://www.w3.org/2000/svg">
<path fill-rule="evenodd" clip-rule="evenodd" d="M1.95095 6.17562C5.71289 4.48748 8.21726 3.36575 9.47483 2.82154C13.054 1.27778 13.8064 1.01123 14.2901 1.00012C14.3976 1.00012 14.6341 1.02233 14.7953 1.15561C14.9243 1.26667 14.9565 1.41105 14.978 1.52212C14.9995 1.63318 15.021 1.86641 14.9995 2.04411C14.806 4.15429 13.9677 9.27426 13.5377 11.6288C13.355 12.6283 13.0003 12.9615 12.6563 12.9948C11.904 13.0615 11.3343 12.484 10.6142 11.9953C9.47482 11.229 8.84067 10.7514 7.73359 9.99617C6.45453 9.12988 7.28215 8.65231 8.01304 7.87488C8.20651 7.67496 11.5063 4.56522 11.5708 4.28757C11.5815 4.25425 11.5815 4.12097 11.5063 4.05433C11.431 3.9877 11.3235 4.00991 11.2376 4.03212C11.1193 4.05433 9.3136 5.29823 5.79887 7.75271C5.28295 8.11921 4.82077 8.29691 4.40158 8.28581C3.9394 8.2747 3.05803 8.01926 2.39163 7.79713C1.5855 7.53058 0.940601 7.3862 0.994343 6.91974C1.02659 6.6754 1.34904 6.43107 1.95095 6.17562Z" fill="black"/>
</svg>
