<svg width="23" height="23" viewBox="0 0 23 23" fill="none" xmlns="http://www.w3.org/2000/svg">
<circle cx="11.5002" cy="11.5001" r="10.5" stroke="white"/>
<path fill-rule="evenodd" clip-rule="evenodd" d="M6.45364 10.7314C9.09309 9.54692 10.8502 8.75989 11.7325 8.37807C14.2438 7.29494 14.7717 7.10792 15.111 7.10013C15.1864 7.10013 15.3523 7.11571 15.4655 7.20922C15.5559 7.28714 15.5786 7.38844 15.5937 7.46637C15.6087 7.54429 15.6238 7.70793 15.6087 7.83261C15.473 9.31315 14.8848 12.9054 14.5831 14.5574C14.4549 15.2587 14.2061 15.4925 13.9647 15.5158C13.4369 15.5626 13.0372 15.1574 12.5319 14.8145C11.7325 14.2769 11.2876 13.9418 10.5108 13.4119C9.61343 12.8041 10.1941 12.469 10.7069 11.9236C10.8427 11.7833 13.1578 9.60146 13.2031 9.40666C13.2106 9.38328 13.2106 9.28977 13.1578 9.24302C13.105 9.19626 13.0296 9.21185 12.9693 9.22743C12.8863 9.24302 11.6194 10.1158 9.15342 11.8379C8.79143 12.095 8.46716 12.2197 8.17305 12.2119C7.84878 12.2041 7.23039 12.0249 6.76283 11.869C6.19724 11.682 5.74476 11.5807 5.78247 11.2534C5.80509 11.082 6.03133 10.9106 6.45364 10.7314Z" fill="white"/>
</svg>
