<svg width="15" height="14" viewBox="0 0 15 14" fill="none" xmlns="http://www.w3.org/2000/svg">
<path d="M7.00879 -0.00866699C10.8734 -0.00857567 14.0175 3.13555 14.0176 7.00012C14.0175 10.8647 10.8734 14.0088 7.00879 14.0089C3.14421 14.0088 9.13217e-05 10.8647 0 7.00012C9.13188e-05 3.13555 3.14421 -0.00857567 7.00879 -0.00866699ZM7.00879 1.33606C3.88607 1.33615 1.34482 3.8774 1.34473 7.00012C1.34482 10.1228 3.88607 12.6641 7.00879 12.6642C10.1315 12.6641 12.6728 10.1228 12.6729 7.00012C12.6728 3.8774 10.1315 1.33615 7.00879 1.33606ZM7.43066 2.52551C7.56858 2.52551 7.68041 2.63766 7.68066 2.77551V6.72083L10.0186 9.05872C10.116 9.15631 10.116 9.31464 10.0186 9.41223L9.4209 10.0099C9.32331 10.1073 9.16496 10.1073 9.06738 10.0099L6.40918 7.35168C6.36267 7.30493 6.33604 7.24088 6.33594 7.17493V2.77551C6.33619 2.6378 6.44822 2.52575 6.58594 2.52551H7.43066Z" fill="#6E6E6E"/>
</svg>
