<svg width="16" height="14" viewBox="0 0 16 14" fill="none" xmlns="http://www.w3.org/2000/svg">
<path d="M1.5 13.5001L2.41815 10.1618C1.85159 9.18466 1.55388 8.07696 1.55443 6.94108C1.55606 3.38991 4.45964 0.500122 8.02721 0.500122C9.75848 0.500664 11.3836 1.17179 12.606 2.38946C13.8278 3.60712 14.5005 5.22562 14.5 6.94704C14.4984 10.4987 11.5948 13.3885 8.02721 13.3885C6.94415 13.388 5.87687 13.1177 4.93151 12.6042L1.5 13.5001ZM5.09043 11.438C6.00259 11.977 6.8734 12.2998 8.02503 12.3003C10.9901 12.3003 13.4055 9.89858 13.4071 6.94596C13.4082 3.98737 11.0043 1.58887 8.02939 1.58779C5.06213 1.58779 2.64837 3.98954 2.64728 6.94162C2.64674 8.14683 3.00159 9.04925 3.59755 9.99337L3.05384 11.9694L5.09043 11.438ZM11.2878 8.47833C11.2476 8.41116 11.1398 8.37108 10.9776 8.29037C10.816 8.20966 10.0208 7.82021 9.87222 7.76658C9.72419 7.71296 9.61643 7.68587 9.50812 7.84729C9.40036 8.00816 9.09014 8.37108 8.99598 8.47833C8.90182 8.58558 8.80712 8.59912 8.64548 8.51841C8.48384 8.43771 7.96245 8.26816 7.34472 7.71946C6.86415 7.29262 6.53923 6.76558 6.44507 6.60416C6.35092 6.44329 6.43528 6.35608 6.51582 6.27591C6.58875 6.20387 6.67747 6.08796 6.75856 5.99371C6.84074 5.90054 6.86741 5.83337 6.92184 5.72558C6.97572 5.61833 6.94905 5.52408 6.90823 5.44337C6.86741 5.36321 6.54413 4.57075 6.4097 4.24846C6.27799 3.93483 6.14465 3.97708 6.04559 3.97221L5.73537 3.96679C5.62761 3.96679 5.45236 4.00687 5.30432 4.16829C5.15628 4.32971 4.7383 4.71862 4.7383 5.51108C4.7383 6.30354 5.31793 7.06891 5.39848 7.17616C5.47957 7.28341 6.53868 8.9095 8.1611 9.60662C8.54697 9.77237 8.84849 9.8715 9.08306 9.94571C9.47057 10.0681 9.82324 10.0508 10.1019 10.0096C10.4127 9.96358 11.0587 9.62016 11.1937 9.24425C11.3286 8.86779 11.3286 8.5455 11.2878 8.47833Z" fill="black"/>
</svg>
